<svg preserveAspectRatio="none" width="100%" height="100%" overflow="visible" style="display: block;" viewBox="0 0 17.9771 35.1891" fill="none" xmlns="http://www.w3.org/2000/svg">
<path id="Vector" d="M12.4886 32.092C11.456 31.2921 10.4686 30.4722 9.59804 29.5982C6.67599 30.7843 3.85413 29.3267 2.33519 27.451C1.80833 26.7154 5.68619 27.4034 6.15188 27.4628C6.9843 27.5998 7.67823 27.923 8.36917 28.2695C7.7202 27.4337 7.1442 26.5742 6.64795 25.6866C3.15146 26.1618 1.39675 24.3625 0.27993 22.1995C0.138596 21.5687 2.35794 22.3306 2.80061 22.3625C4.02786 22.6341 4.90959 23.2459 5.76544 23.9123C5.38983 22.9284 5.07405 21.9602 4.79434 20.9521C3.30429 20.9512 1.82412 20.5607 1.16783 19.4997C0.756605 18.832 -0.188191 17.5218 0.0331329 16.8313C0.152386 16.7514 0.285263 16.7945 0.399971 16.8372C2.05843 17.4346 3.76454 18.1589 4.49309 19.4841C4.43583 18.5574 4.38026 17.6577 4.32342 16.7378C1.59771 16.5858 0.432845 14.6769 0.345185 12.8746C0.318362 12.7142 0.413987 12.5079 0.680668 12.5931C2.35647 13.2153 3.71966 14.2297 4.42713 15.5061C4.5642 14.4867 4.74217 13.486 5.0113 12.4776C3.14925 12.0092 2.12841 10.6892 2.00559 9.28519C2.06286 9.01951 1.63064 7.51066 2.34843 7.8405C3.91367 8.68639 5.22538 9.94098 5.31211 11.4237C5.70778 10.5522 6.09198 9.70597 6.47313 8.86644C5.8015 8.54819 5.0531 8.21823 4.76025 7.63286C4.17579 6.62758 4.1686 5.61134 4.68122 4.59141C4.8627 4.23031 5.05221 4.20721 5.41226 4.48732C6.64281 5.5042 7.32608 6.4582 7.01601 7.94266C7.58445 7.0958 8.13062 6.28213 8.68422 5.45738C6.80452 4.35224 7.1392 2.60904 8.18428 1.2137C8.27944 1.06375 8.4677 0.965306 8.61957 1.1355C9.45267 2.22562 9.73963 3.47526 9.28349 4.69687C11.657 2.37254 9.05306 1.87711 13.8371 0C13.9146 1.81468 12.9598 3.08307 10.5882 3.67938C10.4928 3.71403 10.3821 3.75912 10.3317 3.82249C9.91249 4.41857 9.3079 4.99411 9.00035 5.60868C9.91546 4.85294 10.9909 4.10593 12.4611 4.1591C12.7854 4.2136 14.1934 3.9851 13.8184 4.43939C12.6942 5.74618 10.7344 6.58951 8.612 6.34653C8.31306 6.23262 7.36001 8.05998 7.22409 8.33018C8.44865 7.25081 10.3028 7.10258 12.0806 7.3056C12.312 7.34047 12.2679 7.50198 12.1595 7.616C11.0591 8.96545 8.78991 9.61166 6.7427 9.13367C6.23682 10.0802 5.8186 11.0488 5.52171 12.0452C5.53854 12.051 5.55536 12.0569 5.57219 12.0627C6.72438 10.5787 8.59621 10.1624 10.8048 10.3679C11.2006 10.3914 11.089 10.663 10.9384 10.842C9.83289 12.2933 7.57318 13.2037 5.34853 12.633C5.02912 13.7714 4.84776 14.9035 4.79666 16.0561C5.4427 14.2763 8.10239 13.6062 10.304 13.2781C10.5217 13.2866 10.4799 13.4689 10.4271 13.5762C9.7304 15.4266 7.57775 17.236 4.74363 16.8C4.71035 17.952 4.82793 19.0858 5.08073 20.2194C5.57165 18.267 8.02249 17.0964 10.5463 16.8215C11.3437 16.8762 10.1608 18.6011 9.95514 18.9266C8.9925 20.2963 7.21427 20.8658 5.21994 21.0172C5.53529 22.3588 6.02128 23.666 6.66068 24.9428C6.68047 24.9427 6.70025 24.9426 6.72004 24.9424C6.46354 22.9774 8.27094 21.2674 10.6139 20.4837C11.4271 20.4507 10.9041 22.1826 10.8356 22.5752C10.3962 24.0048 8.7054 24.9517 7.11756 25.7041C7.16425 26.0951 8.86952 28.4734 9.3574 28.812C8.50903 26.7745 10.2841 25.0154 12.1978 23.6866C12.4153 23.5587 12.599 23.7234 12.6506 23.8807C13.5559 25.9364 12.6725 28.4422 9.92152 29.4578C11.0246 30.5549 12.2712 31.5381 13.6632 32.4292C12.2864 30.7671 13.0653 28.2535 15.1439 26.911C15.3667 26.7361 15.5421 26.7548 15.6358 26.9781C16.6876 29.2495 16.9723 31.1768 14.4425 32.975C15.5496 33.688 16.7567 34.3197 17.9771 34.9666C17.9075 35.0425 17.8474 35.1079 17.7728 35.1891C16.5093 34.5247 15.2581 33.8769 14.1091 33.1456C12.1471 34.4259 9.16515 34.4611 7.14493 33.2398C6.73309 32.9428 4.70762 31.9138 6.07991 31.7244C8.20674 31.4103 10.4861 31.4083 12.4886 32.092Z" fill="var(--fill-0, #E2A144)"/>
</svg>
