<svg preserveAspectRatio="none" width="100%" height="100%" overflow="visible" style="display: block;" viewBox="0 0 17.9771 35.1891" fill="none" xmlns="http://www.w3.org/2000/svg">
<path id="Vector" d="M5.48847 32.092C6.52114 31.2921 7.50847 30.4722 8.37908 29.5982C11.3011 30.7843 14.123 29.3267 15.6419 27.451C16.1688 26.7154 12.2909 27.4034 11.8253 27.4628C10.9928 27.5997 10.2989 27.923 9.60794 28.2695C10.2569 27.4337 10.8329 26.5742 11.3292 25.6866C14.8257 26.1618 16.5804 24.3625 17.6972 22.1995C17.8385 21.5687 15.6192 22.3306 15.1765 22.3625C13.9492 22.6341 13.0675 23.2459 12.2117 23.9123C12.5873 22.9284 12.9031 21.9602 13.1828 20.9521C14.6728 20.9512 16.153 20.5607 16.8093 19.4997C17.2205 18.832 18.1653 17.5218 17.944 16.8313C17.8247 16.7514 17.6918 16.7945 17.5771 16.8372C15.9187 17.4346 14.2125 18.1589 13.484 19.4841C13.5413 18.5574 13.5968 17.6577 13.6537 16.7378C16.3794 16.5858 17.5442 14.6769 17.6319 12.8746C17.6587 12.7142 17.5631 12.5079 17.2964 12.5931C15.6206 13.2153 14.2574 14.2297 13.55 15.5061C13.4129 14.4867 13.2349 13.486 12.9658 12.4776C14.8278 12.0092 15.8487 10.6892 15.9715 9.28519C15.9142 9.0195 16.3464 7.51066 15.6287 7.8405C14.0634 8.68639 12.7517 9.94098 12.665 11.4237C12.2693 10.5522 11.8851 9.70597 11.504 8.86644C12.1756 8.54819 12.924 8.21823 13.2168 7.63286C13.8013 6.62758 13.8085 5.61134 13.2959 4.59141C13.1144 4.23031 12.9249 4.20721 12.5648 4.48732C11.3343 5.5042 10.651 6.4582 10.9611 7.94266C10.3926 7.0958 9.84648 6.28213 9.29288 5.45738C11.1726 4.35224 10.8379 2.60904 9.79282 1.2137C9.69766 1.06375 9.50941 0.965306 9.35753 1.1355C8.52443 2.22562 8.23748 3.47526 8.69362 4.69687C6.32008 2.37254 8.92406 1.87711 4.14001 0C4.06247 1.81468 5.01726 3.08307 7.38892 3.67938C7.48425 3.71403 7.59499 3.75912 7.64542 3.82249C8.06461 4.41856 8.6692 4.99411 8.97675 5.60868C8.06164 4.85294 6.9862 4.10593 5.51596 4.1591C5.19172 4.2136 3.78371 3.9851 4.15868 4.43939C5.28286 5.74618 7.24269 6.58951 9.3651 6.34653C9.66404 6.23262 10.6171 8.05998 10.753 8.33018C9.52845 7.25081 7.67432 7.10258 5.89646 7.3056C5.66512 7.34047 5.70922 7.50198 5.81761 7.616C6.91799 8.96545 9.18718 9.61166 11.2344 9.13367C11.7403 10.0802 12.1585 11.0488 12.4554 12.0452C12.4386 12.051 12.4217 12.0569 12.4049 12.0627C11.2527 10.5787 9.3809 10.1624 7.1723 10.3679C6.77647 10.3914 6.88811 10.663 7.0387 10.842C8.1442 12.2933 10.4039 13.2037 12.6286 12.633C12.948 13.7714 13.1293 14.9035 13.1804 16.0561C12.5344 14.2763 9.8747 13.6062 7.67308 13.2781C7.45542 13.2866 7.49721 13.4689 7.55003 13.5762C8.24669 15.4266 10.3993 17.236 13.2335 16.8C13.2667 17.952 13.1492 19.0858 12.8964 20.2194C12.4054 18.267 9.9546 17.0964 7.4308 16.8215C6.63336 16.8762 7.8163 18.6011 8.02195 18.9266C8.98458 20.2963 10.7628 20.8658 12.7571 21.0172C12.4418 22.3588 11.9558 23.666 11.3164 24.9428C11.2966 24.9427 11.2768 24.9425 11.257 24.9424C11.5136 22.9774 9.70615 21.2674 7.36322 20.4837C6.54998 20.4507 7.07299 22.1826 7.14149 22.5752C7.58086 24.0048 9.2717 24.9517 10.8595 25.7041C10.8128 26.0951 9.10758 28.4734 8.6197 28.812C9.46807 26.7745 7.69299 25.0154 5.77928 23.6866C5.56175 23.5587 5.37815 23.7234 5.32654 23.8807C4.4212 25.9364 5.30463 28.4422 8.05556 29.4578C6.95248 30.5549 5.70585 31.5381 4.3139 32.4292C5.69065 30.7671 4.91177 28.2535 2.83317 26.911C2.61039 26.7361 2.43499 26.7548 2.34131 26.9781C1.28951 29.2495 1.0048 31.1768 3.53457 32.975C2.42746 33.688 1.22041 34.3197 0 34.9666C0.0696044 35.0425 0.129712 35.1079 0.20427 35.1891C1.46783 34.5247 2.71896 33.8769 3.86796 33.1456C5.83001 34.4259 8.81194 34.4611 10.8321 33.2398C11.244 32.9428 13.2695 31.9138 11.8972 31.7244C9.77037 31.4102 7.49103 31.4083 5.48847 32.092Z" fill="var(--fill-0, #E2A144)"/>
</svg>
