<svg preserveAspectRatio="none" width="100%" height="100%" overflow="visible" style="display: block;" viewBox="0 0 14.46 14.4616" fill="none" xmlns="http://www.w3.org/2000/svg">
<g id="xbox-seeklogo 1" clip-path="url(#clip0_0_4)">
<path id="Vector" d="M3.22131 1.22811C3.25843 1.19267 3.29723 1.15893 3.33942 1.12856C4.47327 0.392904 5.78091 -0.000231429 7.23196 -0.000231429C8.58853 -0.000231429 9.86074 0.376031 10.944 1.02732C11.0233 1.07288 11.2392 1.22136 11.3489 1.35465C10.3011 0.200554 7.22353 2.67916 7.22353 2.67916C6.16054 1.85746 5.18024 1.29897 4.45302 1.09819C3.84223 0.931145 3.42209 1.07119 3.22131 1.22811ZM12.5334 2.31809C12.503 2.28265 12.4676 2.2506 12.4355 2.21348C12.1723 1.92326 11.8467 1.85409 11.5531 1.87096C11.2848 1.95701 10.0514 2.40076 8.53117 3.83663C8.53117 3.83663 10.2421 5.50029 11.2916 7.20275C12.3393 8.90353 12.9653 10.2415 12.5806 12.0959C13.7921 10.7646 14.4636 9.03007 14.4603 7.22975C14.4603 5.33494 13.7314 3.60717 12.5334 2.31809ZM9.92148 7.92828C9.25501 7.1825 8.56491 6.45698 7.85457 5.75338C7.65547 5.55597 7.44456 5.34843 7.22184 5.13415C7.22184 5.13415 6.88776 5.46823 6.45582 5.90692V5.90524C5.9007 6.4671 5.18024 7.19769 4.78035 7.62626C4.06832 8.38553 2.0284 10.7697 1.91536 12.1077C1.91536 12.1077 1.46148 11.0481 2.45697 8.6015C3.10657 7.00028 5.07225 4.60097 5.89227 3.81808C5.89227 3.81808 5.14143 2.99468 4.20161 2.42438L4.19487 2.4227C4.19487 2.4227 4.18305 2.41426 4.16956 2.40582C3.71737 2.13586 3.22131 1.92664 2.74718 1.89795C2.26293 1.93339 1.95416 2.2894 1.95416 2.2894C0.697142 3.62404 -0.00307787 5.39399 0.000296681 7.23144C0.000296681 11.2252 3.23649 14.4614 7.23196 14.4614C9.35118 14.4614 11.2561 13.5486 12.5806 12.0942C12.5806 12.0925 12.4288 11.1392 11.4569 9.77079C11.2257 9.45189 10.3922 8.45302 9.92148 7.92828Z" fill="var(--fill-0, white)"/>
</g>
<defs>
<clipPath id="clip0_0_4">
<rect width="14.46" height="14.4616" fill="white"/>
</clipPath>
</defs>
</svg>
