<svg preserveAspectRatio="none" width="100%" height="100%" overflow="visible" style="display: block;" viewBox="0 0 18.7406 14.4619" fill="none" xmlns="http://www.w3.org/2000/svg">
<g id="ffffffff">
<path id="Vector" d="M7.01404 0C8.06065 0.219334 9.09412 0.496412 10.1169 0.807692C10.9251 1.05131 11.7331 1.30956 12.4922 1.68304C12.7408 1.82034 12.9893 1.95913 13.2191 2.12692C13.5378 2.36682 13.83 2.64836 14.0476 2.98517C14.32 3.38666 14.4687 3.85606 14.5683 4.32694C14.66 4.92001 14.7073 5.52473 14.6516 6.12374C14.596 6.6546 14.4669 7.19736 14.1497 7.63702C13.9502 7.92476 13.6647 8.15276 13.3398 8.28312C13.0471 8.38969 12.7303 8.42365 12.4208 8.39961C12.0282 8.35648 11.6463 8.23504 11.2904 8.06627L11.2783 8.05264C11.2748 6.66699 11.2778 5.28086 11.2768 3.89497C11.2733 3.58468 11.2981 3.26745 11.2106 2.96559C11.1616 2.78046 11.0718 2.59284 10.9036 2.48851C10.7519 2.3921 10.5519 2.31031 10.3769 2.39309C10.198 2.47983 10.1209 2.68479 10.0835 2.86794C10.0431 3.09991 10.055 3.3366 10.053 3.57105C10.053 7.20133 10.0527 10.8316 10.0532 14.4616C9.04232 14.132 8.02595 13.819 7.01305 13.4956C7.01528 8.99713 7.01305 4.49844 7.01404 0Z" fill="var(--fill-0, white)"/>
<path id="Vector_2" d="M2.96189 9.38757C4.11234 8.9774 5.26501 8.57244 6.41472 8.1598C6.40158 8.7484 6.41546 9.33775 6.40778 9.92661C5.47741 10.2624 4.54332 10.5943 3.61146 10.9291C3.38717 11.0116 3.15371 11.0788 2.95098 11.2087C2.88283 11.2605 2.80402 11.3179 2.79014 11.4089C2.76709 11.5041 2.8516 11.5824 2.92694 11.6248C3.19981 11.7673 3.51778 11.7767 3.81915 11.775C4.22684 11.7752 4.63304 11.6959 5.01495 11.5536C5.47939 11.3834 5.9473 11.2225 6.40976 11.0468C6.4115 11.5762 6.40555 12.1058 6.41274 12.6349C6.1416 12.6677 5.87444 12.7333 5.60083 12.747C5.17406 12.798 4.74357 12.8079 4.31432 12.8C3.64988 12.7978 2.99064 12.6954 2.34057 12.5643C1.98443 12.4704 1.62705 12.3797 1.27785 12.2622C1.01416 12.1831 0.761861 12.0662 0.528897 11.9202C0.299154 11.7675 0.0822991 11.5559 0.0188535 11.2778C-0.0497967 11.0285 0.0790771 10.7665 0.263466 10.6015C0.63844 10.3011 1.07537 10.0922 1.51776 9.91174C1.9931 9.7209 2.48035 9.56204 2.96189 9.38757Z" fill="var(--fill-0, white)"/>
<path id="Vector_3" d="M13.4564 8.95025C13.6567 8.95149 13.8552 8.91332 14.0557 8.92968C15.0837 8.93612 16.1172 9.07144 17.0949 9.39833C17.2619 9.46103 17.4312 9.51704 17.6007 9.5733C17.8966 9.69548 18.1993 9.82411 18.4364 10.0454C18.5998 10.1877 18.7252 10.3877 18.7403 10.6075C18.7477 10.805 18.6424 10.9852 18.5204 11.1324C18.1779 11.4648 17.744 11.6856 17.3031 11.8581C15.0847 12.6606 12.8629 13.4532 10.644 14.2544C10.647 13.6663 10.6435 13.0782 10.6457 12.4901C12.2859 11.902 13.9283 11.3195 15.5687 10.7314C15.7368 10.6715 15.913 10.5929 16.0109 10.435C16.0515 10.3617 16.0171 10.2682 15.9531 10.2209C15.7739 10.0883 15.5474 10.0477 15.3301 10.0348C15.0277 9.99859 14.7221 10.0256 14.4225 10.071C14.0617 10.1272 13.7246 10.2729 13.3806 10.3894C12.4683 10.7111 11.5556 11.0313 10.644 11.3545C10.645 10.7453 10.6472 10.1359 10.6428 9.52646C11.5503 9.21246 12.5003 9.02856 13.4564 8.95025Z" fill="var(--fill-0, white)"/>
</g>
</svg>
