<svg width="30" height="30" viewBox="0 0 30 30" fill="none" xmlns="http://www.w3.org/2000/svg">
<g clip-path="url(#clip0_195_2054)">
<path fill-rule="evenodd" clip-rule="evenodd" d="M29.8319 13.3115L21.0243 8.35671C20.7237 8.1876 20.3832 8.18634 20.0837 8.35741L3.86053 17.6257L1.20701 16.1094C0.855356 16.2942 0.516009 16.5027 0.172465 16.7021L0.00195312 19.3318L0.581615 19.6962L1.30773 19.2884L4.91438 21.431L4.563 21.6339L4.60259 21.6567L4.56622 21.6362L4.51488 21.6972L4.46341 21.7583L4.516 21.878L4.56846 21.9976L4.67239 22.0562L4.77632 22.1148L4.95802 22.0098L5.02964 21.9684V22.2182C5.02964 22.3792 5.10951 22.5174 5.24897 22.5978L7.33164 23.7987C7.40144 23.8388 7.48131 23.8389 7.55111 23.7986L7.84052 23.632L7.8892 23.7429L7.94179 23.8626L8.04572 23.9212L8.14965 23.9798L8.68469 23.6709L10.3809 24.6785L10.5251 24.6027V24.3468L10.568 24.371C10.8682 24.5415 11.2097 24.5415 11.5093 24.3701L12.4979 23.8047C12.5726 23.7619 12.6577 23.7616 12.7328 23.8039L13.4649 24.2162C13.7651 24.3868 14.106 24.3855 14.4062 24.2154L15.36 23.6751C15.4362 23.6318 15.4802 23.5569 15.4806 23.4691C15.481 23.3814 15.4377 23.306 15.3617 23.2623L14.7826 22.9277C14.3988 22.7058 14.7152 22.4061 15.2015 22.6871L15.7899 23.027C16.0151 23.1571 16.2723 23.1582 16.4985 23.0299L23.589 19.0126C23.6957 18.9516 23.757 18.846 23.7568 18.723C23.7568 18.6001 23.6954 18.4941 23.5883 18.4338L23.0966 18.1572C23.02 18.1141 22.9758 18.0387 22.9755 17.9508C22.9752 17.8629 23.0188 17.7872 23.0952 17.7435L29.8321 13.8902C29.939 13.8292 30.0001 13.7236 30.0001 13.6007C30.0004 13.4778 29.9391 13.3717 29.8319 13.3115Z" fill="#ACD5EA"/>
<path fill-rule="evenodd" clip-rule="evenodd" d="M1.32062 17.9635L19.648 7.49315C19.9475 7.32208 20.288 7.32334 20.5886 7.49245L29.3962 12.4473C29.5034 12.5076 29.5647 12.6136 29.5648 12.7365C29.5649 12.8595 29.5037 12.9651 29.3968 13.0261L22.6599 16.8793C22.5836 16.923 22.5399 16.9987 22.5402 17.0866C22.5405 17.1746 22.5847 17.25 22.6613 17.2931L23.153 17.5698C23.2601 17.6299 23.3216 17.7361 23.3216 17.8591C23.3217 17.982 23.2604 18.0876 23.1536 18.1486L16.0631 22.1659C15.8369 22.2942 15.5796 22.2931 15.3544 22.163L14.7661 21.8231C14.2797 21.5421 13.9633 21.8418 14.3472 22.0637L14.9263 22.3984C15.0021 22.4422 15.0454 22.5176 15.0452 22.6053C15.0447 22.693 15.0008 22.768 14.9246 22.8112L13.9708 23.3516C13.6706 23.5217 13.3297 23.5229 13.0295 23.3524L12.2974 22.94C12.2224 22.8978 12.1374 22.8981 12.0625 22.9409L11.0739 23.5063C10.7742 23.6776 10.4328 23.6776 10.1326 23.5071L1.3209 18.5428C1.21375 18.4824 1.15234 18.3765 1.15234 18.2535C1.15248 18.13 1.21375 18.0244 1.32062 17.9635Z" fill="#0D3A4E"/>
<path fill-rule="evenodd" clip-rule="evenodd" d="M22.8871 17.4189L23.1553 17.5697C23.2624 17.6299 23.3238 17.7361 23.3238 17.859C23.3239 17.982 23.2627 18.0876 23.1558 18.1486L16.0653 22.1659C15.8391 22.2942 15.5819 22.293 15.3567 22.163L14.8913 21.8941V21.482L22.8871 17.4189ZM14.8913 22.8312V22.3768L14.9285 22.3984C15.0043 22.4422 15.0477 22.5175 15.0474 22.6053C15.047 22.693 15.0031 22.7679 14.9268 22.8112L14.8913 22.8312ZM14.8913 21.8941L14.7684 21.823C14.7573 21.8166 14.7461 21.8106 14.7353 21.8047V21.5612L14.8913 21.482V21.8941ZM14.8913 22.3767V22.831L13.973 23.3512C13.6728 23.5213 13.3319 23.5226 13.0318 23.3521L12.5254 23.067L12.5257 22.8233L14.2915 22.0256C14.3087 22.0383 14.328 22.0511 14.3494 22.0635L14.8913 22.3767Z" fill="#6A603B"/>
<path fill-rule="evenodd" clip-rule="evenodd" d="M1.245 17.6764L19.5724 7.20604C19.8719 7.03497 20.2124 7.03623 20.513 7.20535L29.3206 12.1602C29.4278 12.2203 29.489 12.3265 29.4892 12.4494C29.4893 12.5724 29.4281 12.678 29.3213 12.7388L22.5843 16.5921C22.5079 16.6357 22.4643 16.7114 22.4646 16.7994C22.4649 16.8874 22.5091 16.9628 22.5857 17.0059L23.0775 17.2825C23.1847 17.3427 23.2459 17.4487 23.2461 17.5718C23.2462 17.6948 23.185 17.8004 23.0782 17.8614L15.9877 21.8787C15.7616 22.007 15.5043 22.0058 15.2791 21.8758L14.6908 21.5359C14.2044 21.2547 13.888 21.5546 14.2718 21.7763L14.8511 22.1109C14.9269 22.1548 14.9703 22.2302 14.97 22.3178C14.9696 22.4055 14.9256 22.4805 14.8494 22.5237L13.8957 23.0642C13.5954 23.2343 13.2545 23.2355 12.9543 23.065L12.2222 22.6525C12.1472 22.6103 12.0622 22.6105 11.9873 22.6534L10.9987 23.2187C10.699 23.3901 10.3576 23.3901 10.0574 23.2196L1.2457 18.2553C1.13856 18.1948 1.07715 18.0891 1.07715 17.966C1.07673 17.8429 1.138 17.7373 1.245 17.6764Z" fill="#397184"/>
<path fill-rule="evenodd" clip-rule="evenodd" d="M22.6486 17.042L23.078 17.2836C23.1852 17.3437 23.2465 17.4497 23.2466 17.5728C23.2467 17.6958 23.1855 17.8014 23.0787 17.8624L15.9882 21.8797C15.7621 22.008 15.5048 22.0069 15.2796 21.8768L14.8527 21.63V21.4949L22.6486 17.042ZM14.8527 22.5232V22.1129C14.9278 22.1568 14.9706 22.2318 14.9702 22.3191C14.9698 22.4055 14.927 22.4798 14.8527 22.5232ZM14.8527 21.6302L14.7351 21.5622L14.8527 21.4951V21.6302ZM14.8527 22.1129V22.5232L14.8496 22.5248L13.8959 23.0653C13.5956 23.2354 13.2547 23.2367 12.9545 23.0662L12.5254 22.8245L14.315 21.8022L14.8514 22.1122L14.8527 22.1129Z" fill="#D6CC70"/>
<path fill-rule="evenodd" clip-rule="evenodd" d="M2.85961 16.0626L3.3864 15.7625V15.4392H3.95389L12.939 10.3203H16.4496L9.17223 23.4098L1.77051 19.1822V16.0626H2.85961Z" fill="#58595B"/>
<path fill-rule="evenodd" clip-rule="evenodd" d="M1.75586 16.0581L21.0058 5.1295L23.244 4.80078L28.7396 7.89939L28.4279 9.31175L9.17409 20.2407L1.75586 16.0581Z" fill="url(#paint0_linear_195_2054)"/>
<path fill-rule="evenodd" clip-rule="evenodd" d="M2.91538 16.7204L2.88965 16.3839L9.63212 12.9023L10.2059 11.7857L13.7278 9.7836L15.7675 9.42858L16.907 8.78164L17.5043 7.63309L21.198 5.55154L23.1124 5.27053L23.5988 5L28.2611 7.30689L28.287 7.6433L27.8132 7.92082L27.5466 9.12882L23.7334 11.2848L21.5822 11.4209L20.3793 12.1039L20.0597 13.3792L16.5549 15.3645L14.234 15.5733L7.51686 19.3879L2.91538 16.7204Z" fill="#414042"/>
<path fill-rule="evenodd" clip-rule="evenodd" d="M2.91553 16.7209L2.88965 16.3845L5.42133 15.0771H7.51015V19.3843L2.91553 16.7209Z" fill="#58595B"/>
<path fill-rule="evenodd" clip-rule="evenodd" d="M28.4203 9.30664V12.6146L9.17285 23.4096V20.241L28.4203 9.30664Z" fill="#414042"/>
<path fill-rule="evenodd" clip-rule="evenodd" d="M2.88965 16.3854L9.6061 12.5674L10.18 11.4507L13.702 9.44864L15.7416 9.09362L16.8811 8.44682L17.4785 7.29813L21.1722 5.21658L23.0866 4.93557L23.5729 4.66504L28.2611 7.30834L27.7873 7.58586L27.5207 8.794L23.7076 10.9498L21.5563 11.0859L20.3535 11.769L20.0338 13.0442L16.529 15.0297L14.2081 15.2384L7.49112 19.0529L2.88965 16.3854Z" fill="url(#paint1_linear_195_2054)"/>
<path fill-rule="evenodd" clip-rule="evenodd" d="M28.738 7.89844L28.4199 9.3108V12.6132L28.7166 11.1821L28.738 7.89844Z" fill="#58595B"/>
<path fill-rule="evenodd" clip-rule="evenodd" d="M14.9592 10.1602C16.8827 10.2113 18.4169 11.2214 18.3852 12.4158C18.3534 13.6104 16.7679 14.5376 14.8444 14.4866C12.9209 14.4355 11.3867 13.4254 11.4185 12.2309C11.4501 11.0364 13.0356 10.109 14.9592 10.1602Z" fill="#414042"/>
<path fill-rule="evenodd" clip-rule="evenodd" d="M14.953 10.3222C16.733 10.3695 18.1528 11.3041 18.1234 12.4095C18.094 13.5149 16.6267 14.3731 14.8467 14.3258C13.0666 14.2785 11.647 13.3439 11.6762 12.2382C11.7057 11.1331 13.1731 10.2749 14.953 10.3222Z" fill="#414042"/>
<path d="M17.3514 11.0609C17.1284 11.2193 16.8586 11.3879 16.5657 11.5587C16.2018 11.7706 15.7968 11.9891 15.3985 12.1978C15.8412 12.2024 16.2956 12.2021 16.7144 12.1879C17.2824 12.1686 17.78 12.1244 18.08 12.0361C18.1081 12.1392 18.1239 12.2447 18.1262 12.3518C17.7935 12.4405 17.2897 12.4851 16.7243 12.5043C16.3073 12.5184 15.8552 12.5188 15.4142 12.5142C15.7257 12.6772 16.0365 12.8326 16.3365 12.9752L16.342 12.9782C16.7844 13.1884 17.1993 13.3694 17.5529 13.5076C17.463 13.5867 17.364 13.6611 17.2567 13.7307C16.9394 13.6015 16.5839 13.4441 16.2098 13.2663L16.2 13.2619C15.8405 13.0909 15.4608 12.8989 15.0781 12.6945C15.2393 13.0878 15.4076 13.4724 15.5741 13.8312C15.6437 13.9811 15.7132 14.126 15.7814 14.2656C15.6728 14.283 15.562 14.2965 15.4492 14.3068C15.3953 14.1953 15.3405 14.081 15.2861 13.9638C15.1074 13.5792 14.9274 13.1648 14.7554 12.7418C14.563 13.1535 14.3836 13.5629 14.2259 13.9484L14.2256 13.9489L14.2259 13.9491C14.1841 14.0516 14.1438 14.1523 14.1048 14.2516C13.9976 14.233 13.8929 14.2109 13.7905 14.1859C13.8362 14.069 13.8835 13.9501 13.9333 13.8286L13.9336 13.8288C14.0823 13.4651 14.2477 13.0851 14.4229 12.7061C14.0586 12.9015 13.7029 13.1032 13.3711 13.3003C13.1221 13.4483 12.8871 13.5938 12.6719 13.733C12.5717 13.6717 12.4776 13.6065 12.3904 13.5378C12.6383 13.3747 12.9148 13.2027 13.2097 13.0273C13.5029 12.8529 13.8161 12.6748 14.1381 12.4999C13.7784 12.5015 13.4243 12.51 13.0874 12.5244C12.5804 12.5461 12.1144 12.5812 11.7293 12.6265C11.7001 12.5244 11.6833 12.4199 11.6797 12.3138C12.0772 12.2666 12.5562 12.2302 13.075 12.208C13.4163 12.1935 13.7768 12.1848 14.143 12.1834C13.754 11.9722 13.3511 11.7604 12.9736 11.5767C12.6819 11.4349 12.4071 11.3104 12.1674 11.2184C12.2505 11.1371 12.3431 11.0603 12.4443 10.988C12.6518 11.0737 12.8769 11.1774 13.1114 11.2914C13.5454 11.5025 14.0148 11.7519 14.4591 11.995C14.2744 11.53 14.0747 11.0443 13.8769 10.6082C13.8487 10.546 13.8207 10.485 13.7926 10.425C13.898 10.4026 14.0059 10.3837 14.1162 10.3685L14.1662 10.4778C14.3759 10.9399 14.5882 11.4584 14.7829 11.9502C15.0081 11.4798 15.2414 10.978 15.437 10.5121C15.4578 10.4626 15.4784 10.4138 15.4983 10.3652C15.6072 10.3796 15.7142 10.3973 15.819 10.4182C15.7903 10.4894 15.7605 10.5616 15.7298 10.6349C15.5476 11.0687 15.33 11.5395 15.1161 11.9881C15.5493 11.7626 15.9999 11.5213 16.4069 11.2842C16.6493 11.143 16.8744 11.0042 17.0662 10.8738C17.1673 10.9326 17.2627 10.995 17.3514 11.0609Z" fill="#808285"/>
<path fill-rule="evenodd" clip-rule="evenodd" d="M14.928 11.2881C15.8488 11.3126 16.5835 11.7961 16.5682 12.3679C16.5531 12.9399 15.7938 13.3839 14.8729 13.3594C13.9519 13.3349 13.2174 12.8514 13.2327 12.2794C13.2479 11.7076 14.007 11.2636 14.928 11.2881Z" fill="#5E8228"/>
<path fill-rule="evenodd" clip-rule="evenodd" d="M21.9984 5.99127C23.9219 6.04232 25.4561 7.05239 25.4243 8.24696C25.3926 9.44154 23.8071 10.3688 21.8834 10.3177C19.96 10.2667 18.4258 9.25661 18.4575 8.06204C18.4894 6.86747 20.0749 5.94021 21.9984 5.99127Z" fill="#414042"/>
<path fill-rule="evenodd" clip-rule="evenodd" d="M21.9939 6.15225C23.774 6.19953 25.1937 7.13421 25.1644 8.23968C25.1351 9.34514 23.6677 10.2032 21.8876 10.1559C20.1077 10.1086 18.6879 9.17393 18.7172 8.06846C18.7465 6.963 20.2138 6.10498 21.9939 6.15225Z" fill="#414042"/>
<path d="M24.3882 6.89023C24.1652 7.04886 23.8953 7.21727 23.6024 7.38806C23.2387 7.60012 22.8334 7.81861 22.4353 8.02717C22.8781 8.03179 23.3324 8.03151 23.7512 8.01724C24.3191 7.99794 24.8168 7.95374 25.1167 7.86547C25.1448 7.96856 25.1606 8.07403 25.1629 8.18132C24.8302 8.27 24.3264 8.31463 23.7611 8.33379C23.3441 8.34792 22.8921 8.3482 22.451 8.34372C22.7627 8.50654 23.0735 8.66195 23.3734 8.80476L23.3788 8.8077C23.8213 9.01794 24.2362 9.19894 24.5898 9.33728C24.4998 9.41632 24.4008 9.49059 24.2935 9.56025C23.9763 9.431 23.6207 9.27364 23.2468 9.09599L23.237 9.09152C22.8775 8.92044 22.4977 8.72853 22.115 8.52417C22.2763 8.91751 22.4446 9.30203 22.611 9.66083C22.6807 9.81078 22.7502 9.95569 22.8185 10.0953C22.7099 10.1126 22.599 10.1263 22.4861 10.1364C22.4323 10.0249 22.3774 9.91079 22.3232 9.79343C22.1445 9.4089 21.9645 8.99444 21.7925 8.57144C21.6 8.98311 21.4207 9.39268 21.263 9.77804L21.2627 9.7786L21.263 9.77874C21.2211 9.88128 21.1809 9.98213 21.1417 10.0813C21.0346 10.0626 20.9298 10.0406 20.8274 10.0156C20.8732 9.89862 20.9205 9.77972 20.9703 9.65831L20.9705 9.65845C21.1192 9.29476 21.2848 8.91471 21.4598 8.53564C21.0956 8.73105 20.7399 8.93275 20.4081 9.12998C20.1592 9.27798 19.9241 9.42331 19.7088 9.56263C19.6087 9.50136 19.5145 9.43618 19.4275 9.36764C19.6754 9.20454 19.9519 9.03235 20.2468 8.85708C20.5398 8.68279 20.8532 8.50458 21.1752 8.32973C20.8155 8.33127 20.4612 8.33994 20.1245 8.35421C19.6175 8.37575 19.1515 8.411 18.7665 8.45618C18.7372 8.35407 18.7204 8.24958 18.7168 8.14355C19.1142 8.09641 19.5931 8.06005 20.1121 8.0378C20.4534 8.02326 20.8137 8.01458 21.1801 8.01319C20.7911 7.80197 20.3882 7.59019 20.0107 7.40667C19.719 7.26483 19.4442 7.14034 19.2046 7.0483C19.2876 6.96703 19.3802 6.89023 19.4814 6.81792C19.689 6.90366 19.914 7.00731 20.1485 7.12117C20.5826 7.33225 21.0519 7.58166 21.4963 7.82477C21.3117 7.35981 21.112 6.87415 20.914 6.43814C20.8856 6.3759 20.8578 6.31491 20.8297 6.2549C20.9351 6.23252 21.043 6.21378 21.1534 6.19839L21.2033 6.30778C21.413 6.7698 21.6253 7.28833 21.8199 7.78015C22.0451 7.30973 22.2783 6.80798 22.4738 6.34219C22.4947 6.29253 22.5152 6.24385 22.5351 6.19531C22.6441 6.20958 22.7511 6.22735 22.8558 6.24833C22.8273 6.31953 22.7974 6.39184 22.7666 6.465C22.5845 6.89877 22.3668 7.3696 22.1528 7.81833C22.586 7.59285 23.0366 7.3517 23.4436 7.11446C23.686 6.97318 23.9111 6.83442 24.103 6.70405C24.2041 6.76196 24.2994 6.82449 24.3882 6.89023Z" fill="#808285"/>
<path fill-rule="evenodd" clip-rule="evenodd" d="M21.969 7.11719C22.89 7.14167 23.6245 7.62523 23.6094 8.19706C23.5941 8.76902 22.835 9.21286 21.914 9.18852C20.9931 9.16404 20.2586 8.68048 20.2737 8.10851C20.2889 7.53655 21.0482 7.09257 21.969 7.11719Z" fill="#5E8228"/>
<path fill-rule="evenodd" clip-rule="evenodd" d="M10.355 20.949V24.1174L10.2108 24.1932L1.13707 18.8031L0.100007 19.3854L0.00195312 19.3324V16.2167C0.345497 16.0174 0.684845 15.8088 1.03664 15.624L10.355 20.949Z" fill="url(#paint2_linear_195_2054)"/>
<path fill-rule="evenodd" clip-rule="evenodd" d="M10.3525 20.9541V24.1172L10.2082 24.193L9.59375 23.8279V21.3265L10.3525 20.9541Z" fill="#D1D3D4"/>
<path fill-rule="evenodd" clip-rule="evenodd" d="M0.349974 19.2457L0.100148 19.3862L0.00195312 19.3332V16.2236L0.349974 16.4224V19.2457Z" fill="#A7A9AC"/>
<path fill-rule="evenodd" clip-rule="evenodd" d="M10.2093 21.0259V24.1945L0.991211 18.8802V15.7607L10.2093 21.0259Z" fill="#A7A9AC"/>
<path fill-rule="evenodd" clip-rule="evenodd" d="M0.0986328 16.2709V19.3866L0.991624 18.8802V15.7607L0.0986328 16.2709Z" fill="#828487"/>
<path fill-rule="evenodd" clip-rule="evenodd" d="M10.55 13.7234L4.35446 17.2336L3.94336 16.9952L10.1562 13.5059L10.55 13.7234Z" fill="#90C440"/>
<path fill-rule="evenodd" clip-rule="evenodd" d="M11.2984 14.1091L5.05899 17.6444L4.64746 17.4058L10.9048 13.8916L11.2984 14.1091Z" fill="#90C440"/>
<path fill-rule="evenodd" clip-rule="evenodd" d="M12.0488 14.4919L5.76518 18.0523L5.35352 17.8136L11.6552 14.2744L12.0488 14.4919Z" fill="#90C440"/>
<path fill-rule="evenodd" clip-rule="evenodd" d="M12.7992 14.8756L6.47138 18.461L6.05957 18.2222L12.4056 14.6582L12.7992 14.8756Z" fill="#90C440"/>
<path fill-rule="evenodd" clip-rule="evenodd" d="M2.15039 18.3067C2.24985 18.4466 2.2602 18.6101 2.17333 18.6719C2.08647 18.7338 1.93526 18.6704 1.8358 18.5305C1.73635 18.3906 1.726 18.2271 1.81286 18.1653C1.89987 18.1035 2.05094 18.1668 2.15039 18.3067Z" fill="#808285"/>
<path fill-rule="evenodd" clip-rule="evenodd" d="M2.11906 18.3307C2.19767 18.4412 2.20578 18.5704 2.1371 18.6192C2.06842 18.668 1.94897 18.618 1.87036 18.5075C1.79174 18.397 1.78363 18.2677 1.85231 18.2189C1.92099 18.1701 2.04045 18.2202 2.11906 18.3307Z" fill="#D1D3D4"/>
<path fill-rule="evenodd" clip-rule="evenodd" d="M2.09855 18.3443C2.17717 18.4548 2.18528 18.5841 2.1166 18.6329C2.04792 18.6817 1.92846 18.6318 1.84985 18.5211C1.77124 18.4106 1.76312 18.2814 1.8318 18.2326C1.90048 18.1837 2.0198 18.2338 2.09855 18.3443Z" fill="#A7A9AC"/>
<path d="M1.96201 18.5896C1.94256 18.5896 1.92676 18.5738 1.92676 18.5544V18.3302C1.92676 18.3107 1.94256 18.2949 1.96201 18.2949C1.98145 18.2949 1.99726 18.3107 1.99726 18.3302V18.5544C1.99726 18.5738 1.98145 18.5896 1.96201 18.5896Z" fill="#6D6E71"/>
<path d="M2.06103 18.5316C2.0553 18.5316 2.04956 18.5302 2.04411 18.5273L1.84744 18.4197C1.83037 18.4103 1.82408 18.3889 1.83345 18.3719C1.84268 18.3548 1.86436 18.3485 1.88129 18.3579L2.07795 18.4654C2.09502 18.4748 2.10132 18.4962 2.09194 18.5133C2.08565 18.5249 2.07348 18.5316 2.06103 18.5316Z" fill="#6D6E71"/>
<path fill-rule="evenodd" clip-rule="evenodd" d="M2.57957 19.2615V19.3934C2.57957 19.4327 2.55999 19.4665 2.526 19.4861C2.49201 19.5058 2.45298 19.5058 2.41885 19.4861L1.40207 18.8999C1.33395 18.8606 1.29492 18.7932 1.29492 18.7145V18.5881C1.29492 18.5488 1.31436 18.5151 1.34835 18.4953C1.38234 18.4756 1.42123 18.4755 1.45536 18.4951L2.47173 19.0757C2.54027 19.1147 2.57957 19.1826 2.57957 19.2615Z" fill="#D1D3D4"/>
<path fill-rule="evenodd" clip-rule="evenodd" d="M2.58017 19.2631V19.3951C2.58017 19.4161 2.57472 19.4353 2.56436 19.4519C2.54604 19.4519 2.52758 19.447 2.51065 19.4374L1.49415 18.8511C1.42589 18.8121 1.38672 18.7444 1.38672 18.6659V18.5392C1.38672 18.5182 1.39245 18.4991 1.40294 18.4824C1.42113 18.4824 1.43931 18.4873 1.4561 18.4968L2.4726 19.0773C2.54086 19.1164 2.58017 19.1842 2.58017 19.2631Z" fill="#414042"/>
<path fill-rule="evenodd" clip-rule="evenodd" d="M2.55981 19.2943V19.305C2.55981 19.3167 2.55407 19.3267 2.544 19.3325C2.53393 19.3382 2.52246 19.3382 2.51239 19.3325L1.44763 18.7177C1.42749 18.7061 1.41602 18.6862 1.41602 18.663V18.6539C1.41602 18.6423 1.42175 18.6324 1.43182 18.6265C1.44189 18.6206 1.45336 18.6206 1.46343 18.6264L2.52806 19.2394C2.5482 19.2511 2.55981 19.2711 2.55981 19.2943Z" fill="#A7A9AC"/>
<path fill-rule="evenodd" clip-rule="evenodd" d="M3.74805 19.2139C3.8475 19.3538 3.85785 19.5173 3.77099 19.5791C3.68412 19.6409 3.53305 19.5776 3.43346 19.4377C3.33401 19.2978 3.32365 19.1343 3.41052 19.0725C3.49738 19.0108 3.64859 19.074 3.74805 19.2139Z" fill="#808285"/>
<path fill-rule="evenodd" clip-rule="evenodd" d="M3.71281 19.2379C3.79142 19.3484 3.79953 19.4776 3.73085 19.5265C3.66217 19.5753 3.54272 19.5253 3.46411 19.4147C3.38549 19.304 3.37738 19.1749 3.44606 19.1261C3.51474 19.0773 3.6342 19.1274 3.71281 19.2379Z" fill="#D1D3D4"/>
<path fill-rule="evenodd" clip-rule="evenodd" d="M3.69621 19.2506C3.77482 19.3611 3.78293 19.4904 3.71425 19.5392C3.64557 19.588 3.52612 19.5379 3.4475 19.4274C3.36889 19.3169 3.36078 19.1877 3.42946 19.1388C3.49814 19.09 3.6176 19.14 3.69621 19.2506Z" fill="#A7A9AC"/>
<path d="M3.55576 19.4959C3.53631 19.4959 3.52051 19.4801 3.52051 19.4606V19.2364C3.52051 19.217 3.53631 19.2012 3.55576 19.2012C3.5752 19.2012 3.59101 19.217 3.59101 19.2364V19.4606C3.59101 19.4801 3.5752 19.4959 3.55576 19.4959Z" fill="#6D6E71"/>
<path d="M3.65678 19.438C3.65104 19.438 3.64531 19.4366 3.63985 19.4336L3.44319 19.3261C3.42612 19.3167 3.41982 19.2953 3.42906 19.2782C3.43843 19.261 3.46011 19.2547 3.4769 19.2641L3.67356 19.3717C3.69063 19.381 3.69692 19.4024 3.68769 19.4195C3.68126 19.4314 3.66923 19.438 3.65678 19.438Z" fill="#6D6E71"/>
<path fill-rule="evenodd" clip-rule="evenodd" d="M4.1743 20.1697V20.3016C4.1743 20.3409 4.15486 20.3747 4.12073 20.3943C4.08674 20.414 4.04771 20.414 4.01358 20.3943L2.99679 19.8081C2.92867 19.7688 2.88965 19.7014 2.88965 19.6227V19.4963C2.88965 19.457 2.90909 19.4233 2.94308 19.4036C2.97707 19.3838 3.01596 19.3837 3.05009 19.4033L4.06645 19.9839C4.13499 20.0231 4.1743 20.0908 4.1743 20.1697Z" fill="#D1D3D4"/>
<path fill-rule="evenodd" clip-rule="evenodd" d="M4.17294 20.1695V20.3015C4.17294 20.3224 4.16749 20.3417 4.15714 20.3582C4.13881 20.3582 4.12035 20.3534 4.10328 20.3436L3.08678 19.7574C3.01852 19.7184 2.97949 19.6507 2.97949 19.5722V19.4455C2.97949 19.4245 2.98523 19.4052 2.99558 19.3887C3.01376 19.3887 3.03181 19.3934 3.04887 19.4031L4.06538 19.9837C4.13364 20.0227 4.17294 20.0906 4.17294 20.1695Z" fill="#414042"/>
<path fill-rule="evenodd" clip-rule="evenodd" d="M4.15663 20.2035V20.2142C4.15663 20.2258 4.15089 20.2358 4.14082 20.2416C4.13075 20.2474 4.11914 20.2474 4.10907 20.2416L3.04431 19.6269C3.02417 19.6153 3.0127 19.5953 3.0127 19.5722V19.5631C3.0127 19.5515 3.01843 19.5415 3.0285 19.5357C3.03857 19.5298 3.05004 19.5298 3.06011 19.5355L4.12474 20.1486C4.14502 20.1601 4.15663 20.1801 4.15663 20.2035Z" fill="#A7A9AC"/>
<path fill-rule="evenodd" clip-rule="evenodd" d="M17.3378 16.1458L17.7777 15.9012C17.8307 15.8717 17.8934 15.878 17.9396 15.9175C17.9859 15.9569 18.0018 16.0178 17.9811 16.0748L17.1968 18.2302C17.1357 18.3982 17.0292 18.5231 16.8729 18.61L16.4329 18.8544C16.3799 18.8839 16.3173 18.8776 16.2711 18.8382C16.2249 18.7987 16.2088 18.7379 16.2297 18.6808L17.014 16.5254C17.075 16.3574 17.1816 16.2325 17.3378 16.1458Z" fill="#808285"/>
<path fill-rule="evenodd" clip-rule="evenodd" d="M17.3379 16.1458L17.7778 15.9013C17.7913 15.8939 17.8053 15.8887 17.8195 15.8857C17.8423 15.9221 17.8474 15.9667 17.8318 16.0094L17.0475 18.1648C16.9863 18.3328 16.8798 18.4576 16.7236 18.5444L16.2837 18.7888C16.2702 18.7962 16.2562 18.8014 16.242 18.8043C16.2192 18.768 16.2141 18.7233 16.2297 18.6808L17.014 16.5254C17.0751 16.3574 17.1817 16.2325 17.3379 16.1458Z" fill="#231F20"/>
<path fill-rule="evenodd" clip-rule="evenodd" d="M18.8261 15.3028L19.266 15.0585C19.319 15.029 19.3817 15.0353 19.4279 15.0747C19.4742 15.1141 19.4901 15.175 19.4694 15.2321L18.6851 17.3875C18.624 17.5555 18.5174 17.6804 18.3611 17.7671L17.9212 18.0115C17.8682 18.0408 17.8055 18.0345 17.7594 17.9952C17.7132 17.9558 17.6971 17.8949 17.718 17.8379L18.5023 15.6825C18.5633 15.5145 18.6698 15.3897 18.8261 15.3028Z" fill="#808285"/>
<path fill-rule="evenodd" clip-rule="evenodd" d="M18.8262 15.3029L19.2661 15.0585C19.2795 15.0509 19.2935 15.0459 19.3078 15.043C19.3306 15.0793 19.3356 15.124 19.3201 15.1666L18.5358 17.3219C18.4745 17.4899 18.3681 17.6148 18.2118 17.7017L17.7719 17.946C17.7585 17.9534 17.7445 17.9586 17.7302 17.9614C17.7075 17.925 17.7024 17.8804 17.7179 17.8379L18.5022 15.6825C18.5633 15.5145 18.6699 15.3897 18.8262 15.3029Z" fill="#231F20"/>
<path fill-rule="evenodd" clip-rule="evenodd" d="M20.3182 14.4573L20.7581 14.2128C20.8113 14.1833 20.8738 14.1896 20.9201 14.229C20.9663 14.2684 20.9824 14.3293 20.9615 14.3864L20.1772 16.5418C20.1161 16.7098 20.0095 16.8347 19.8533 16.9214L19.4133 17.1658C19.3603 17.1951 19.2977 17.1888 19.2515 17.1495C19.2053 17.1101 19.1894 17.0492 19.2101 16.9923L19.9944 14.8369C20.0554 14.6689 20.162 14.5441 20.3182 14.4573Z" fill="#808285"/>
<path fill-rule="evenodd" clip-rule="evenodd" d="M20.3184 14.4573L20.7583 14.2128C20.7717 14.2054 20.7857 14.2002 20.8 14.1973C20.8228 14.2336 20.8278 14.2783 20.8123 14.3209L20.028 16.4762C19.9668 16.6442 19.8604 16.7691 19.704 16.8558L19.2641 17.1002C19.2506 17.1077 19.2367 17.1128 19.2224 17.1156C19.1997 17.0792 19.1946 17.0346 19.2101 16.9921L19.9944 14.8367C20.0555 14.6689 20.1621 14.5442 20.3184 14.4573Z" fill="#231F20"/>
<path fill-rule="evenodd" clip-rule="evenodd" d="M24.4844 11.9846L24.9243 11.7401C24.9774 11.7106 25.04 11.7169 25.0863 11.7562C25.1324 11.7957 25.1485 11.8565 25.1277 11.9136L24.3434 14.069C24.2822 14.237 24.1757 14.3619 24.0194 14.4486L23.5795 14.693C23.5263 14.7224 23.4638 14.7161 23.4175 14.6768C23.3713 14.6373 23.3554 14.5765 23.3761 14.5195L24.1604 12.3641C24.2215 12.1963 24.3281 12.0714 24.4844 11.9846Z" fill="#808285"/>
<path fill-rule="evenodd" clip-rule="evenodd" d="M24.4844 11.9846L24.9243 11.7401C24.9377 11.7326 24.9517 11.7275 24.966 11.7246C24.9888 11.761 24.9938 11.8056 24.9783 11.8483L24.194 14.0035C24.1328 14.1715 24.0263 14.2964 23.87 14.3833L23.4301 14.6277C23.4167 14.6351 23.4027 14.6403 23.3884 14.6431C23.3657 14.6068 23.3606 14.5621 23.3761 14.5195L24.1604 12.3641C24.2215 12.1963 24.3281 12.0714 24.4844 11.9846Z" fill="#231F20"/>
<path fill-rule="evenodd" clip-rule="evenodd" d="M25.9786 11.1388L26.4185 10.8944C26.4716 10.8649 26.5342 10.8712 26.5804 10.9105C26.6267 10.95 26.6426 11.0108 26.6218 11.0679L25.8375 13.2233C25.7762 13.3913 25.6698 13.5162 25.5135 13.6029L25.0736 13.8473C25.0204 13.8768 24.9579 13.8705 24.9118 13.8311C24.8656 13.7916 24.8495 13.7308 24.8702 13.6737L25.6545 11.5184C25.7158 11.3504 25.8224 11.2258 25.9786 11.1388Z" fill="#808285"/>
<path fill-rule="evenodd" clip-rule="evenodd" d="M25.9784 11.1398L26.4183 10.8954C26.4317 10.8879 26.4457 10.8828 26.46 10.8799C26.4828 10.9163 26.4878 10.9609 26.4723 11.0035L25.688 13.1588C25.6269 13.3268 25.5203 13.4517 25.3641 13.5384L24.9241 13.7828C24.9107 13.7904 24.8967 13.7954 24.8826 13.7983C24.8598 13.762 24.8548 13.7173 24.8703 13.6747L25.6546 11.5194C25.7156 11.3514 25.8222 11.2268 25.9784 11.1398Z" fill="#231F20"/>
<path fill-rule="evenodd" clip-rule="evenodd" d="M27.4708 10.296L27.9107 10.0516C27.9638 10.0221 28.0264 10.0284 28.0726 10.0679C28.1189 10.1073 28.1348 10.1682 28.114 10.2252L27.3297 12.3805C27.2684 12.5485 27.1621 12.6734 27.0057 12.7603L26.5658 13.0046C26.5128 13.034 26.4501 13.0279 26.404 12.9884C26.3578 12.949 26.3417 12.8881 26.3624 12.831L27.1467 10.6758C27.208 10.5076 27.3146 10.3829 27.4708 10.296Z" fill="#808285"/>
<path fill-rule="evenodd" clip-rule="evenodd" d="M27.4708 10.296L27.9107 10.0517C27.9241 10.0442 27.9381 10.0391 27.9524 10.0361C27.9752 10.0725 27.9802 10.1171 27.9647 10.1596L27.1804 12.315C27.1192 12.483 27.0127 12.608 26.8564 12.6947L26.4165 12.9391C26.4031 12.9465 26.3891 12.9516 26.3748 12.9544C26.352 12.9181 26.347 12.8734 26.3624 12.8309L27.1467 10.6757C27.2079 10.5077 27.3145 10.3829 27.4708 10.296Z" fill="#231F20"/>
<path fill-rule="evenodd" clip-rule="evenodd" d="M12.8687 23.0175L13.0248 23.1023C13.1487 23.1606 13.2781 23.1907 13.408 23.193L12.6243 22.7676L12.5254 22.8241L12.8687 23.0175Z" fill="#AAA576"/>
<path fill-rule="evenodd" clip-rule="evenodd" d="M12.7578 22.6891L13.6377 23.1666C13.6833 23.1556 13.7283 23.1409 13.7728 23.1227L12.863 22.6289L12.7578 22.6891Z" fill="#AAA576"/>
<path fill-rule="evenodd" clip-rule="evenodd" d="M13.001 22.5493L13.9201 23.0482L14.0257 22.9882L13.1062 22.4893L13.001 22.5493Z" fill="#AAA576"/>
<path fill-rule="evenodd" clip-rule="evenodd" d="M13.2461 22.4117L14.1662 22.9111L14.272 22.8512L13.3514 22.3516L13.2461 22.4117Z" fill="#AAA576"/>
<path fill-rule="evenodd" clip-rule="evenodd" d="M13.4893 22.2729L14.4105 22.773L14.5161 22.7131L13.5946 22.2129L13.4893 22.2729Z" fill="#AAA576"/>
<path fill-rule="evenodd" clip-rule="evenodd" d="M13.7324 22.1333L14.6546 22.6337L14.7603 22.5739L13.8377 22.0732L13.7324 22.1333Z" fill="#AAA576"/>
<path fill-rule="evenodd" clip-rule="evenodd" d="M13.9756 21.9957L14.8928 22.4935C14.9194 22.4699 14.9395 22.4411 14.9527 22.4088L14.0808 21.9355L13.9756 21.9957Z" fill="#AAA576"/>
<path fill-rule="evenodd" clip-rule="evenodd" d="M14.2139 21.8559L14.9593 22.2606C14.9449 22.1976 14.9056 22.1447 14.8468 22.1108L14.3104 21.8008L14.2139 21.8559Z" fill="#AAA576"/>
<path fill-rule="evenodd" clip-rule="evenodd" d="M15.6461 21.9747L14.8075 21.5195L14.7334 21.5619L15.2778 21.8765C15.395 21.9442 15.5206 21.9768 15.6461 21.9747Z" fill="#AAA576"/>
<path fill-rule="evenodd" clip-rule="evenodd" d="M14.9434 21.44L15.8573 21.936C15.8976 21.9223 15.9373 21.9047 15.9762 21.8833L15.0487 21.3799L14.9434 21.44Z" fill="#AAA576"/>
<path fill-rule="evenodd" clip-rule="evenodd" d="M15.1865 21.3012L16.1148 21.8051L16.2205 21.7452L15.2919 21.2412L15.1865 21.3012Z" fill="#AAA576"/>
<path fill-rule="evenodd" clip-rule="evenodd" d="M15.4316 21.1637L16.361 21.6679L16.4666 21.6081L15.537 21.1035L15.4316 21.1637Z" fill="#AAA576"/>
<path fill-rule="evenodd" clip-rule="evenodd" d="M15.6748 21.024L16.605 21.5288L16.7108 21.469L15.7801 20.9639L15.6748 21.024Z" fill="#AAA576"/>
<path fill-rule="evenodd" clip-rule="evenodd" d="M15.9131 20.8862L16.8444 21.3917L16.9502 21.3318L16.0184 20.8262L15.9131 20.8862Z" fill="#AAA576"/>
<path fill-rule="evenodd" clip-rule="evenodd" d="M16.1562 20.7476L17.0885 21.2536L17.1943 21.1937L16.2616 20.6875L16.1562 20.7476Z" fill="#AAA576"/>
<path fill-rule="evenodd" clip-rule="evenodd" d="M16.3994 20.608L17.3325 21.1145L17.4384 21.0546L16.5046 20.5479L16.3994 20.608Z" fill="#AAA576"/>
<path fill-rule="evenodd" clip-rule="evenodd" d="M16.6426 20.4702L17.5768 20.9772L17.6826 20.9174L16.7479 20.4102L16.6426 20.4702Z" fill="#AAA576"/>
<path fill-rule="evenodd" clip-rule="evenodd" d="M16.8857 20.3307L17.8211 20.8383L17.9269 20.7784L16.9911 20.2705L16.8857 20.3307Z" fill="#AAA576"/>
<path fill-rule="evenodd" clip-rule="evenodd" d="M17.1289 20.192L18.0653 20.7002L18.1709 20.6402L17.2342 20.1318L17.1289 20.192Z" fill="#AAA576"/>
<path fill-rule="evenodd" clip-rule="evenodd" d="M17.3721 20.0533L18.3094 20.5619L18.4151 20.502L17.4774 19.9932L17.3721 20.0533Z" fill="#AAA576"/>
<path fill-rule="evenodd" clip-rule="evenodd" d="M17.6172 19.9156L18.5555 20.4249L18.6612 20.3649L17.7225 19.8555L17.6172 19.9156Z" fill="#AAA576"/>
<path fill-rule="evenodd" clip-rule="evenodd" d="M17.8555 19.776L18.7948 20.2858L18.9005 20.2258L17.9607 19.7158L17.8555 19.776Z" fill="#AAA576"/>
<path fill-rule="evenodd" clip-rule="evenodd" d="M18.0986 19.6373L19.039 20.1476L19.1447 20.0877L18.2038 19.5771L18.0986 19.6373Z" fill="#AAA576"/>
<path fill-rule="evenodd" clip-rule="evenodd" d="M18.3418 19.4996L19.283 20.0106L19.3888 19.9506L18.447 19.4395L18.3418 19.4996Z" fill="#AAA576"/>
<path fill-rule="evenodd" clip-rule="evenodd" d="M18.585 19.3609L19.5273 19.8723L19.6331 19.8125L18.6902 19.3008L18.585 19.3609Z" fill="#AAA576"/>
<path fill-rule="evenodd" clip-rule="evenodd" d="M18.8281 19.2213L19.7715 19.7332L19.8771 19.6734L18.9333 19.1611L18.8281 19.2213Z" fill="#AAA576"/>
<path fill-rule="evenodd" clip-rule="evenodd" d="M19.0713 19.0816L20.0158 19.5942L20.1214 19.5343L19.1766 19.0215L19.0713 19.0816Z" fill="#AAA576"/>
<path fill-rule="evenodd" clip-rule="evenodd" d="M19.3145 18.9449L20.2598 19.458L20.3655 19.3981L19.4196 18.8848L19.3145 18.9449Z" fill="#AAA576"/>
<path fill-rule="evenodd" clip-rule="evenodd" d="M19.5596 18.8051L20.506 19.3189L20.6116 19.2589L19.6648 18.7451L19.5596 18.8051Z" fill="#AAA576"/>
<path fill-rule="evenodd" clip-rule="evenodd" d="M19.7979 18.6676L20.7454 19.1818L20.851 19.1219L19.9032 18.6074L19.7979 18.6676Z" fill="#AAA576"/>
<path fill-rule="evenodd" clip-rule="evenodd" d="M20.041 18.5289L20.9894 19.0437L21.0951 18.9836L20.1463 18.4688L20.041 18.5289Z" fill="#AAA576"/>
<path fill-rule="evenodd" clip-rule="evenodd" d="M20.2842 18.3892L21.2335 18.9046L21.3393 18.8446L20.3894 18.3291L20.2842 18.3892Z" fill="#AAA576"/>
<path fill-rule="evenodd" clip-rule="evenodd" d="M20.5273 18.2525L21.4778 18.7683L21.5834 18.7084L20.6327 18.1924L20.5273 18.2525Z" fill="#AAA576"/>
<path fill-rule="evenodd" clip-rule="evenodd" d="M20.7705 18.1129L21.7218 18.6293L21.8276 18.5693L20.8757 18.0527L20.7705 18.1129Z" fill="#AAA576"/>
<path fill-rule="evenodd" clip-rule="evenodd" d="M21.0137 17.9732L21.9661 18.4901L22.0719 18.4302L21.1189 17.9131L21.0137 17.9732Z" fill="#AAA576"/>
<path fill-rule="evenodd" clip-rule="evenodd" d="M21.2568 17.8365L22.2103 18.3539L22.316 18.2941L21.362 17.7764L21.2568 17.8365Z" fill="#AAA576"/>
<path fill-rule="evenodd" clip-rule="evenodd" d="M21.5 17.6969L22.4545 18.2148L22.5601 18.155L21.6053 17.6367L21.5 17.6969Z" fill="#AAA576"/>
<path fill-rule="evenodd" clip-rule="evenodd" d="M21.7402 17.5572L22.6956 18.0758L22.8014 18.0159L21.8454 17.4971L21.7402 17.5572Z" fill="#AAA576"/>
<path fill-rule="evenodd" clip-rule="evenodd" d="M21.9834 17.4206L22.9399 17.9397L23.0455 17.8797L22.0887 17.3604L21.9834 17.4206Z" fill="#AAA576"/>
<path fill-rule="evenodd" clip-rule="evenodd" d="M22.2266 17.2809L23.164 17.7897C23.187 17.7634 23.2053 17.7341 23.2186 17.702L22.3319 17.2207L22.2266 17.2809Z" fill="#AAA576"/>
<path fill-rule="evenodd" clip-rule="evenodd" d="M22.4697 17.1412L23.2438 17.5614C23.2424 17.5131 23.2317 17.4678 23.2123 17.427L22.5751 17.0811L22.4697 17.1412Z" fill="#AAA576"/>
<path fill-rule="evenodd" clip-rule="evenodd" d="M4.59109 19.167L4.69516 19.2256L4.7991 19.2842L4.85169 19.4038L4.90414 19.5235L4.85281 19.5847L4.80133 19.6457L4.6974 19.587L4.59347 19.5284L4.54088 19.4088L4.48828 19.2891L4.53976 19.228L4.59109 19.167Z" fill="#808285"/>
<path fill-rule="evenodd" clip-rule="evenodd" d="M5.51822 19.1708L4.9068 19.524L4.80176 19.2847L5.41261 18.9316L5.51822 19.1708Z" fill="#A7A9AC"/>
<path fill-rule="evenodd" clip-rule="evenodd" d="M5.41317 19.2929L4.80176 19.6461L4.90457 19.524L5.51556 19.1709L5.41317 19.2929Z" fill="#808285"/>
<path fill-rule="evenodd" clip-rule="evenodd" d="M4.77753 19.3483C4.83026 19.4224 4.83572 19.5091 4.7897 19.5418C4.74368 19.5746 4.66353 19.541 4.6108 19.4669C4.55806 19.3927 4.5526 19.306 4.59863 19.2733C4.64465 19.2405 4.7248 19.2741 4.77753 19.3483Z" fill="#414042"/>
<path fill-rule="evenodd" clip-rule="evenodd" d="M8.28203 20.5282V20.7985C8.28203 20.8693 8.2514 20.9311 8.19657 20.9725H8.19643C8.18887 20.9782 8.18077 20.9837 8.17223 20.9886C8.16342 20.9936 8.15461 20.998 8.14566 21.0019L7.57662 21.3293L5.14062 19.3156L5.77498 18.9483L5.77722 18.9503C5.84254 18.9191 5.915 18.9217 5.9792 18.9584L8.06117 20.1478C8.20147 20.2279 8.28203 20.3667 8.28203 20.5282Z" fill="url(#paint3_linear_195_2054)"/>
<path fill-rule="evenodd" clip-rule="evenodd" d="M7.68791 20.8694V21.1396C7.68791 21.2202 7.64791 21.2894 7.57825 21.3296C7.50845 21.3698 7.42858 21.3698 7.35878 21.3297L5.27611 20.1288C5.13665 20.0484 5.05664 19.9102 5.05664 19.7492V19.49C5.05664 19.4096 5.09637 19.3403 5.16603 19.3C5.23569 19.2596 5.31528 19.2593 5.38508 19.2993L7.46705 20.4887C7.60735 20.569 7.68791 20.7078 7.68791 20.8694Z" fill="#808285"/>
<path fill-rule="evenodd" clip-rule="evenodd" d="M7.6164 20.8661V21.0888C7.6164 21.1551 7.58352 21.2122 7.52603 21.2453C7.46854 21.2785 7.40266 21.2786 7.34517 21.2455L5.30475 20.0674C5.18977 20.0012 5.12402 19.8872 5.12402 19.7546V19.541C5.12402 19.4747 5.15676 19.4178 5.21411 19.3845C5.27146 19.3512 5.3372 19.3509 5.39469 19.384L7.43455 20.5525C7.54995 20.6188 7.6164 20.733 7.6164 20.8661Z" fill="#414042"/>
<path fill-rule="evenodd" clip-rule="evenodd" d="M5.51798 19.6953L5.36775 19.6104L5.36621 19.4404L5.51602 19.5251L5.51798 19.6953Z" fill="#231F20"/>
<path fill-rule="evenodd" clip-rule="evenodd" d="M5.51993 19.9119L5.36984 19.8272L5.36816 19.6572L5.51811 19.7419L5.51993 19.9119Z" fill="#231F20"/>
<path fill-rule="evenodd" clip-rule="evenodd" d="M5.70451 19.8006L5.55428 19.7157L5.55273 19.5459L5.70255 19.6305L5.70451 19.8006Z" fill="#231F20"/>
<path fill-rule="evenodd" clip-rule="evenodd" d="M5.8881 19.9023L5.73787 19.8174L5.73633 19.6475L5.88614 19.7322L5.8881 19.9023Z" fill="#231F20"/>
<path fill-rule="evenodd" clip-rule="evenodd" d="M6.07657 20.0067L5.92634 19.9219L5.9248 19.752L6.07461 19.8366L6.07657 20.0067Z" fill="#231F20"/>
<path fill-rule="evenodd" clip-rule="evenodd" d="M6.2631 20.1094L6.11286 20.0244L6.11133 19.8545L6.26114 19.9393L6.2631 20.1094Z" fill="#231F20"/>
<path fill-rule="evenodd" clip-rule="evenodd" d="M6.44767 20.2129L6.29744 20.128L6.2959 19.958L6.44571 20.0426L6.44767 20.2129Z" fill="#231F20"/>
<path fill-rule="evenodd" clip-rule="evenodd" d="M6.63614 20.3162L6.48592 20.2313L6.48438 20.0615L6.63419 20.1461L6.63614 20.3162Z" fill="#231F20"/>
<path fill-rule="evenodd" clip-rule="evenodd" d="M6.82267 20.4199L6.67258 20.335L6.6709 20.165L6.82071 20.2497L6.82267 20.4199Z" fill="#231F20"/>
<path fill-rule="evenodd" clip-rule="evenodd" d="M5.70646 20.0156L5.55637 19.9307L5.55469 19.7607L5.70464 19.8455L5.70646 20.0156Z" fill="#231F20"/>
<path fill-rule="evenodd" clip-rule="evenodd" d="M5.89494 20.1181L5.74471 20.0332L5.74316 19.8633L5.89298 19.9479L5.89494 20.1181Z" fill="#231F20"/>
<path fill-rule="evenodd" clip-rule="evenodd" d="M6.0795 20.2215L5.92928 20.1366L5.92773 19.9668L6.07755 20.0514L6.0795 20.2215Z" fill="#231F20"/>
<path fill-rule="evenodd" clip-rule="evenodd" d="M6.26603 20.3262L6.11579 20.2412L6.11426 20.0713L6.26407 20.1559L6.26603 20.3262Z" fill="#231F20"/>
<path fill-rule="evenodd" clip-rule="evenodd" d="M6.4545 20.4276L6.30427 20.3427L6.30273 20.1729L6.45254 20.2575L6.4545 20.4276Z" fill="#231F20"/>
<path fill-rule="evenodd" clip-rule="evenodd" d="M6.6381 20.5322L6.48787 20.4473L6.48633 20.2773L6.63614 20.362L6.6381 20.5322Z" fill="#231F20"/>
<path fill-rule="evenodd" clip-rule="evenodd" d="M6.82462 20.6356L6.67453 20.5508L6.67285 20.3809L6.82266 20.4655L6.82462 20.6356Z" fill="#231F20"/>
<path fill-rule="evenodd" clip-rule="evenodd" d="M5.51993 20.122L5.36984 20.0371L5.36816 19.8672L5.51811 19.952L5.51993 20.122Z" fill="#231F20"/>
<path fill-rule="evenodd" clip-rule="evenodd" d="M5.70646 20.2256L5.55637 20.1407L5.55469 19.9707L5.70464 20.0553L5.70646 20.2256Z" fill="#231F20"/>
<path fill-rule="evenodd" clip-rule="evenodd" d="M5.89494 20.328L5.74471 20.2431L5.74316 20.0732L5.89298 20.1579L5.89494 20.328Z" fill="#231F20"/>
<path fill-rule="evenodd" clip-rule="evenodd" d="M6.0795 20.4336L5.92928 20.3487L5.92773 20.1787L6.07755 20.2633L6.0795 20.4336Z" fill="#231F20"/>
<path fill-rule="evenodd" clip-rule="evenodd" d="M6.26603 20.5369L6.11579 20.452L6.11426 20.2822L6.26407 20.3669L6.26603 20.5369Z" fill="#231F20"/>
<path fill-rule="evenodd" clip-rule="evenodd" d="M6.4545 20.6396L6.30427 20.5547L6.30273 20.3848L6.45254 20.4694L6.4545 20.6396Z" fill="#231F20"/>
<path fill-rule="evenodd" clip-rule="evenodd" d="M6.6381 20.743L6.48787 20.6582L6.48633 20.4883L6.63614 20.5729L6.6381 20.743Z" fill="#231F20"/>
<path fill-rule="evenodd" clip-rule="evenodd" d="M6.82462 20.8457L6.67453 20.7608L6.67285 20.5908L6.82266 20.6756L6.82462 20.8457Z" fill="#231F20"/>
<path fill-rule="evenodd" clip-rule="evenodd" d="M7.05802 20.5556L6.90779 20.4709L6.90625 20.3008L7.05606 20.3855L7.05802 20.5556Z" fill="#231F20"/>
<path fill-rule="evenodd" clip-rule="evenodd" d="M7.43009 20.7616L7.28 20.6768L7.27832 20.5068L7.42827 20.5915L7.43009 20.7616Z" fill="#231F20"/>
<path fill-rule="evenodd" clip-rule="evenodd" d="M7.05997 20.9824L6.90988 20.8975L6.9082 20.7275L7.05802 20.8122L7.05997 20.9824Z" fill="#231F20"/>
<path fill-rule="evenodd" clip-rule="evenodd" d="M7.43302 21.1883L7.28293 21.1035L7.28125 20.9336L7.43106 21.0182L7.43302 21.1883Z" fill="#231F20"/>
<path fill-rule="evenodd" clip-rule="evenodd" d="M8.78482 20.7973L8.17341 21.1507L7.96387 21.0298L8.57472 20.6768L8.78482 20.7973Z" fill="url(#paint4_linear_195_2054)"/>
<path fill-rule="evenodd" clip-rule="evenodd" d="M7.96623 21.0322L8.07016 21.0908L8.17409 21.1494L8.22669 21.2692L8.27914 21.3888L8.22781 21.4499L8.17633 21.5109L8.0724 21.4524L7.96847 21.3937L7.91587 21.2741L7.86328 21.1545L7.91475 21.0934L7.96623 21.0322Z" fill="#808285"/>
<path fill-rule="evenodd" clip-rule="evenodd" d="M8.89029 21.0359L8.27888 21.3891L8.17383 21.1498L8.78468 20.7969L8.89029 21.0359Z" fill="#A7A9AC"/>
<path fill-rule="evenodd" clip-rule="evenodd" d="M8.78915 21.158L8.17773 21.5112L8.28055 21.389L8.89154 21.0361L8.78915 21.158Z" fill="#808285"/>
<path fill-rule="evenodd" clip-rule="evenodd" d="M8.14863 21.2124C8.20136 21.2866 8.20682 21.3733 8.1608 21.406C8.11478 21.4388 8.03462 21.4052 7.98189 21.331C7.92915 21.2569 7.9237 21.1702 7.96972 21.1375C8.01574 21.1049 8.09589 21.1384 8.14863 21.2124Z" fill="#414042"/>
<path fill-rule="evenodd" clip-rule="evenodd" d="M5.40982 18.9322L4.7984 19.2854L4.58887 19.1646L5.19972 18.8115L5.40982 18.9322Z" fill="url(#paint5_linear_195_2054)"/>
<path fill-rule="evenodd" clip-rule="evenodd" d="M4.51297 20.7988L4.61704 20.8574L4.72097 20.916L4.77356 21.0356L4.82602 21.1554L4.77468 21.2164L4.72321 21.2775L4.61928 21.2189L4.51534 21.1603L4.46275 21.0405L4.41016 20.9209L4.46163 20.8598L4.51297 20.7988Z" fill="#808285"/>
<path fill-rule="evenodd" clip-rule="evenodd" d="M5.43717 20.8016L4.82575 21.1549L4.7207 20.9156L5.33156 20.5625L5.43717 20.8016Z" fill="#A7A9AC"/>
<path fill-rule="evenodd" clip-rule="evenodd" d="M5.33211 20.9237L4.7207 21.2769L4.82351 21.1548L5.43451 20.8018L5.33211 20.9237Z" fill="#808285"/>
<path fill-rule="evenodd" clip-rule="evenodd" d="M4.6955 20.98C4.74823 21.0542 4.75369 21.1409 4.70767 21.1736C4.66165 21.2064 4.5815 21.1728 4.52876 21.0988C4.47603 21.0247 4.47057 20.9379 4.51659 20.9052C4.56261 20.8723 4.64276 20.9059 4.6955 20.98Z" fill="#414042"/>
<path fill-rule="evenodd" clip-rule="evenodd" d="M8.20112 22.1602V22.4305C8.20112 22.5012 8.17049 22.5631 8.11566 22.6045H8.11551C8.10796 22.6102 8.09985 22.6157 8.09131 22.6206C8.0825 22.6256 8.07369 22.6299 8.06474 22.6337L7.49571 22.9612L5.05957 20.9475L5.69392 20.5801L5.69616 20.5821C5.76148 20.5509 5.83394 20.5536 5.89815 20.5902L7.98011 21.7796C8.12069 21.8599 8.20112 21.9987 8.20112 22.1602Z" fill="url(#paint6_linear_195_2054)"/>
<path fill-rule="evenodd" clip-rule="evenodd" d="M7.60784 22.501V22.7713C7.60784 22.8519 7.56783 22.9211 7.49817 22.9614C7.42837 23.0017 7.3485 23.0017 7.2787 22.9615L5.19603 21.7607C5.05657 21.6802 4.97656 21.542 4.97656 21.381V21.1218C4.97656 21.0414 5.01629 20.9722 5.08595 20.9319C5.15547 20.8915 5.2352 20.8912 5.305 20.9312L7.38696 22.1206C7.52726 22.2007 7.60784 22.3395 7.60784 22.501Z" fill="#808285"/>
<path fill-rule="evenodd" clip-rule="evenodd" d="M7.53729 22.4978V22.7205C7.53729 22.7868 7.50442 22.8439 7.44693 22.8772C7.38944 22.9103 7.32356 22.9103 7.26607 22.8773L5.22565 21.6992C5.11066 21.6331 5.04492 21.5191 5.04492 21.3865V21.1729C5.04492 21.1066 5.07766 21.0496 5.13501 21.0164C5.19236 20.9831 5.25796 20.9828 5.31559 21.0158L7.35545 22.1843C7.47099 22.2504 7.53729 22.3647 7.53729 22.4978Z" fill="#414042"/>
<path fill-rule="evenodd" clip-rule="evenodd" d="M5.43498 21.3281L5.28474 21.2432L5.2832 21.0732L5.43302 21.1579L5.43498 21.3281Z" fill="#231F20"/>
<path fill-rule="evenodd" clip-rule="evenodd" d="M5.43888 21.5448L5.28879 21.46L5.28711 21.29L5.43706 21.3747L5.43888 21.5448Z" fill="#231F20"/>
<path fill-rule="evenodd" clip-rule="evenodd" d="M5.62345 21.4315L5.47322 21.3466L5.47168 21.1768L5.62149 21.2614L5.62345 21.4315Z" fill="#231F20"/>
<path fill-rule="evenodd" clip-rule="evenodd" d="M5.80997 21.5342L5.65974 21.4492L5.6582 21.2793L5.80801 21.3639L5.80997 21.5342Z" fill="#231F20"/>
<path fill-rule="evenodd" clip-rule="evenodd" d="M5.99454 21.6375L5.84431 21.5528L5.84277 21.3828L5.99258 21.4674L5.99454 21.6375Z" fill="#231F20"/>
<path fill-rule="evenodd" clip-rule="evenodd" d="M6.18302 21.7402L6.03293 21.6553L6.03125 21.4854L6.18106 21.5701L6.18302 21.7402Z" fill="#231F20"/>
<path fill-rule="evenodd" clip-rule="evenodd" d="M6.36759 21.8447L6.2175 21.7598L6.21582 21.5898L6.36563 21.6745L6.36759 21.8447Z" fill="#231F20"/>
<path fill-rule="evenodd" clip-rule="evenodd" d="M6.55314 21.9472L6.4029 21.8623L6.40137 21.6924L6.55118 21.7772L6.55314 21.9472Z" fill="#231F20"/>
<path fill-rule="evenodd" clip-rule="evenodd" d="M6.74259 22.0517L6.5925 21.9668L6.59082 21.7969L6.74063 21.8815L6.74259 22.0517Z" fill="#231F20"/>
<path fill-rule="evenodd" clip-rule="evenodd" d="M5.62526 21.6474L5.47517 21.5625L5.47363 21.3926L5.62345 21.4773L5.62526 21.6474Z" fill="#231F20"/>
<path fill-rule="evenodd" clip-rule="evenodd" d="M5.81388 21.7508L5.66365 21.666L5.66211 21.4961L5.81192 21.5807L5.81388 21.7508Z" fill="#231F20"/>
<path fill-rule="evenodd" clip-rule="evenodd" d="M5.99845 21.8535L5.84822 21.7686L5.84668 21.5986L5.99649 21.6834L5.99845 21.8535Z" fill="#231F20"/>
<path fill-rule="evenodd" clip-rule="evenodd" d="M6.18497 21.957L6.03474 21.8721L6.0332 21.7021L6.18301 21.7868L6.18497 21.957Z" fill="#231F20"/>
<path fill-rule="evenodd" clip-rule="evenodd" d="M6.37345 22.0604L6.22322 21.9755L6.22168 21.8057L6.37149 21.8903L6.37345 22.0604Z" fill="#231F20"/>
<path fill-rule="evenodd" clip-rule="evenodd" d="M6.55802 22.164L6.40779 22.0791L6.40625 21.9092L6.55606 21.9938L6.55802 22.164Z" fill="#231F20"/>
<path fill-rule="evenodd" clip-rule="evenodd" d="M6.74454 22.2664L6.59445 22.1815L6.59277 22.0117L6.74258 22.0963L6.74454 22.2664Z" fill="#231F20"/>
<path fill-rule="evenodd" clip-rule="evenodd" d="M5.43888 21.7539L5.28879 21.669L5.28711 21.499L5.43706 21.5838L5.43888 21.7539Z" fill="#231F20"/>
<path fill-rule="evenodd" clip-rule="evenodd" d="M5.62526 21.8582L5.47517 21.7735L5.47363 21.6035L5.62345 21.6881L5.62526 21.8582Z" fill="#231F20"/>
<path fill-rule="evenodd" clip-rule="evenodd" d="M5.81388 21.9619L5.66365 21.877L5.66211 21.707L5.81192 21.7918L5.81388 21.9619Z" fill="#231F20"/>
<path fill-rule="evenodd" clip-rule="evenodd" d="M5.99845 22.0644L5.84822 21.9795L5.84668 21.8096L5.99649 21.8942L5.99845 22.0644Z" fill="#231F20"/>
<path fill-rule="evenodd" clip-rule="evenodd" d="M6.18497 22.1668L6.03474 22.0819L6.0332 21.9121L6.18301 21.9967L6.18497 22.1668Z" fill="#231F20"/>
<path fill-rule="evenodd" clip-rule="evenodd" d="M6.37345 22.2705L6.22322 22.1856L6.22168 22.0156L6.37149 22.1003L6.37345 22.2705Z" fill="#231F20"/>
<path fill-rule="evenodd" clip-rule="evenodd" d="M6.55802 22.3758L6.40779 22.2909L6.40625 22.1211L6.55606 22.2057L6.55802 22.3758Z" fill="#231F20"/>
<path fill-rule="evenodd" clip-rule="evenodd" d="M6.74454 22.4775L6.59445 22.3926L6.59277 22.2227L6.74258 22.3073L6.74454 22.4775Z" fill="#231F20"/>
<path fill-rule="evenodd" clip-rule="evenodd" d="M6.97697 22.1875L6.82674 22.1027L6.8252 21.9326L6.97501 22.0174L6.97697 22.1875Z" fill="#231F20"/>
<path fill-rule="evenodd" clip-rule="evenodd" d="M7.34806 22.3945L7.19797 22.3097L7.19629 22.1396L7.34624 22.2244L7.34806 22.3945Z" fill="#231F20"/>
<path fill-rule="evenodd" clip-rule="evenodd" d="M6.97892 22.6133L6.82883 22.5284L6.82715 22.3584L6.97696 22.443L6.97892 22.6133Z" fill="#231F20"/>
<path fill-rule="evenodd" clip-rule="evenodd" d="M7.35196 22.8202L7.20187 22.7354L7.2002 22.5654L7.35001 22.6501L7.35196 22.8202Z" fill="#231F20"/>
<path fill-rule="evenodd" clip-rule="evenodd" d="M8.70279 22.4301L8.09137 22.7833L7.88184 22.6626L8.49269 22.3096L8.70279 22.4301Z" fill="url(#paint7_linear_195_2054)"/>
<path fill-rule="evenodd" clip-rule="evenodd" d="M7.8842 22.6631L7.98813 22.7217L8.09206 22.7803L8.14466 22.9L8.19725 23.0196L8.14578 23.0808L8.0943 23.1418L7.99037 23.0831L7.88644 23.0245L7.83385 22.9049L7.78125 22.7852L7.83273 22.7242L7.8842 22.6631Z" fill="#808285"/>
<path fill-rule="evenodd" clip-rule="evenodd" d="M8.8084 22.6668L8.19698 23.02L8.0918 22.7807L8.70279 22.4277L8.8084 22.6668Z" fill="#A7A9AC"/>
<path fill-rule="evenodd" clip-rule="evenodd" d="M8.70712 22.7898L8.0957 23.143L8.19865 23.0209L8.80951 22.668L8.70712 22.7898Z" fill="#808285"/>
<path fill-rule="evenodd" clip-rule="evenodd" d="M8.07148 22.8453C8.12421 22.9194 8.12967 23.0062 8.08365 23.0389C8.03763 23.0716 7.95748 23.0381 7.90474 22.9639C7.85201 22.8898 7.84655 22.8031 7.89257 22.7703C7.93859 22.7376 8.01874 22.7713 8.07148 22.8453Z" fill="#414042"/>
<path fill-rule="evenodd" clip-rule="evenodd" d="M5.32974 20.5641L4.71833 20.9173L4.50879 20.7964L5.11964 20.4434L5.32974 20.5641Z" fill="url(#paint8_linear_195_2054)"/>
<path fill-rule="evenodd" clip-rule="evenodd" d="M21.9639 7.09556C22.7569 7.11654 23.3894 7.53296 23.3764 8.02548C23.3634 8.518 22.7096 8.90029 21.9166 8.87916C21.1236 8.85818 20.4911 8.44176 20.5041 7.94911C20.5171 7.45673 21.1709 7.07444 21.9639 7.09556Z" fill="url(#paint9_linear_195_2054)"/>
<path fill-rule="evenodd" clip-rule="evenodd" d="M14.9219 11.2655C15.7149 11.2866 16.3474 11.703 16.3344 12.1955C16.3214 12.688 15.6676 13.0703 14.8746 13.0492C14.0815 13.0281 13.4491 12.6117 13.4621 12.1193C13.4753 11.6268 14.1289 11.2445 14.9219 11.2655Z" fill="url(#paint10_linear_195_2054)"/>
</g>
<defs>
<linearGradient id="paint0_linear_195_2054" x1="23.1858" y1="-1.33419" x2="7.68744" y2="25.5098" gradientUnits="userSpaceOnUse">
<stop stop-color="#808285"/>
<stop offset="0.58" stop-color="#808285"/>
<stop offset="1" stop-color="#BCBEC0"/>
</linearGradient>
<linearGradient id="paint1_linear_195_2054" x1="27.8068" y1="-9.23699" x2="3.42724" y2="32.9896" gradientUnits="userSpaceOnUse">
<stop stop-color="#808285"/>
<stop offset="0.58" stop-color="#808285"/>
<stop offset="1" stop-color="#D1D3D4"/>
</linearGradient>
<linearGradient id="paint2_linear_195_2054" x1="-1.20481" y1="13.2954" x2="11.5871" y2="27.0131" gradientUnits="userSpaceOnUse">
<stop stop-color="#D1D3D4"/>
<stop offset="1" stop-color="white"/>
</linearGradient>
<linearGradient id="paint3_linear_195_2054" x1="5.60368" y1="18.2696" x2="8.06585" y2="21.7859" gradientUnits="userSpaceOnUse">
<stop stop-color="#CFD1D2"/>
<stop offset="0.12" stop-color="white"/>
<stop offset="0.66" stop-color="#CFD1D2"/>
<stop offset="0.82" stop-color="#939598"/>
<stop offset="1" stop-color="#808285"/>
</linearGradient>
<linearGradient id="paint4_linear_195_2054" x1="8.70562" y1="20.4576" x2="8.04301" y2="21.3696" gradientUnits="userSpaceOnUse">
<stop stop-color="#CFD1D2"/>
<stop offset="1" stop-color="white"/>
</linearGradient>
<linearGradient id="paint5_linear_195_2054" x1="5.28201" y1="18.6593" x2="4.71656" y2="19.4376" gradientUnits="userSpaceOnUse">
<stop stop-color="#CFD1D2"/>
<stop offset="1" stop-color="white"/>
</linearGradient>
<linearGradient id="paint6_linear_195_2054" x1="5.52277" y1="19.9016" x2="7.98495" y2="23.4179" gradientUnits="userSpaceOnUse">
<stop stop-color="#CFD1D2"/>
<stop offset="0.12" stop-color="white"/>
<stop offset="0.66" stop-color="#CFD1D2"/>
<stop offset="0.82" stop-color="#939598"/>
<stop offset="1" stop-color="#808285"/>
</linearGradient>
<linearGradient id="paint7_linear_195_2054" x1="8.62363" y1="22.0904" x2="7.96097" y2="23.0024" gradientUnits="userSpaceOnUse">
<stop stop-color="#CFD1D2"/>
<stop offset="1" stop-color="white"/>
</linearGradient>
<linearGradient id="paint8_linear_195_2054" x1="5.20194" y1="20.2911" x2="4.6365" y2="21.0694" gradientUnits="userSpaceOnUse">
<stop stop-color="#CFD1D2"/>
<stop offset="1" stop-color="white"/>
</linearGradient>
<linearGradient id="paint9_linear_195_2054" x1="22.3729" y1="6.91659" x2="21.5077" y2="9.05797" gradientUnits="userSpaceOnUse">
<stop stop-color="#ADC942"/>
<stop offset="0.46" stop-color="#ADC942"/>
<stop offset="1" stop-color="white"/>
</linearGradient>
<linearGradient id="paint10_linear_195_2054" x1="15.4405" y1="10.8155" x2="14.3561" y2="13.4993" gradientUnits="userSpaceOnUse">
<stop stop-color="#ADC942"/>
<stop offset="0.46" stop-color="#ADC942"/>
<stop offset="1" stop-color="white"/>
</linearGradient>
<clipPath id="clip0_195_2054">
<rect width="30" height="30" fill="white"/>
</clipPath>
</defs>
</svg>
