<svg width="30" height="30" viewBox="0 0 30 30" fill="none" xmlns="http://www.w3.org/2000/svg">
<path d="M29.8635 8.95595L29.2547 8.60444L28.7094 8.91928C28.5583 9.00652 28.3146 9.0277 28.141 8.95563C27.9198 8.86364 27.9014 8.68441 28.086 8.5782L28.6477 8.25388V8.04368L28.2191 8.00637L27.6574 8.3307C27.4731 8.43722 27.1627 8.42647 27.0034 8.29877C26.8785 8.19856 26.9152 8.0579 27.0666 7.97065L27.6119 7.65581V7.4456L25.1074 6.20996L0.000976562 20.4953V20.7055L2.50545 22.1516L3.05073 21.8368C3.20183 21.7495 3.44554 21.7281 3.61908 21.8004C3.84036 21.8924 3.85869 22.0717 3.67409 22.1779L3.11237 22.292V22.5022L3.54132 22.7497L4.0866 22.4349C4.23801 22.3476 4.48141 22.3261 4.65495 22.3985C4.87622 22.4905 4.89456 22.6697 4.70995 22.7759L4.14824 22.8897V23.0999L4.81237 23.4834C4.92142 23.5463 5.09813 23.5463 5.20718 23.4834L17.3885 16.4504V16.2402L16.8723 16.1526C16.7759 16.097 16.7759 16.0069 16.8723 15.951C16.9687 15.8953 17.1252 15.8953 17.2213 15.951L17.7375 16.2491L29.9188 9.2161C29.9713 9.18575 29.9972 9.14624 29.9991 9.10641L30.0003 8.88735L29.8635 8.95595ZM4.82343 23.0124C4.95114 22.9387 5.1585 22.9387 5.28652 23.0124C5.33425 23.0399 5.36397 23.0737 5.37598 23.1091L5.08643 23.2438L4.73271 23.1142C4.74377 23.0769 4.7738 23.0411 4.82343 23.0124ZM29.2009 9.29955C29.1655 9.29038 29.1317 9.27868 29.1026 9.26193C28.9749 9.18828 28.9749 9.06848 29.1026 8.99451C29.2306 8.92054 29.4377 8.92054 29.5657 8.99451C29.5923 9.00969 29.6119 9.02738 29.6273 9.04572L29.2009 9.29955Z" fill="#4C9185"/>
<path d="M27.0656 7.761L27.6109 7.44616L25.1064 6L0 20.4955L2.50448 21.9417L3.04975 21.6268C3.20085 21.5396 3.44457 21.5184 3.61811 21.5905C3.83938 21.6825 3.85771 21.8617 3.67311 21.9679L3.11139 22.2922L3.54035 22.5397L4.08562 22.2249C4.23703 22.1377 4.48043 22.1162 4.65397 22.1885C4.87525 22.2805 4.89358 22.4598 4.70898 22.566L4.14726 22.8903L4.81139 23.2737C4.92045 23.3366 5.09715 23.3366 5.2062 23.2737L17.3875 16.2408L16.8713 15.9427C16.7749 15.887 16.7749 15.7966 16.8713 15.741C16.9677 15.6854 17.1239 15.6854 17.2203 15.741L17.7365 16.0391L29.9178 9.00582C30.0269 8.94291 30.0269 8.84081 29.9178 8.7779L29.2537 8.39447L28.7084 8.70931C28.5573 8.79655 28.3136 8.81774 28.1401 8.74567C27.9188 8.65368 27.9005 8.47445 28.0851 8.36824L28.6468 8.04392L28.2181 7.7964L27.6564 8.12072C27.4721 8.22725 27.1617 8.21651 27.0024 8.0888C26.8775 7.98892 26.9145 7.84824 27.0656 7.761ZM5.28618 23.0698C5.15847 23.1435 4.95111 23.1435 4.82309 23.0698C4.69507 22.9962 4.69507 22.8764 4.82309 22.8024C4.95079 22.7288 5.15816 22.7288 5.28618 22.8024C5.41388 22.8764 5.41388 22.9962 5.28618 23.0698ZM29.1023 8.78486C29.2303 8.71089 29.4373 8.71089 29.5654 8.78486C29.6931 8.85851 29.6931 8.97832 29.5654 9.05229C29.4377 9.12625 29.2303 9.12625 29.1023 9.05229C28.9746 8.97832 28.9746 8.85851 29.1023 8.78486Z" fill="#027064"/>
<path d="M5.72266 22.3094L6.29954 22.6425L17.3881 16.2405L16.8719 15.9424C16.8504 15.9301 16.8352 15.9152 16.8235 15.9004L5.72266 22.3094Z" fill="#FF9634"/>
<path d="M28.8249 9.63656L28.248 9.30371L17.1475 15.7127C17.1737 15.7196 17.199 15.7282 17.2205 15.7408L17.7367 16.0389L28.8249 9.63656Z" fill="#FF9634"/>
<path d="M6.06679 22.1104L5.94414 22.1812C5.88156 22.2172 5.88345 22.2769 5.94857 22.3146L6.40787 22.5798L6.75716 22.3781L6.29786 22.1129C6.23275 22.0753 6.12938 22.0743 6.06679 22.1104Z" fill="#FFC034"/>
<path d="M6.59288 21.8068L6.47055 21.8776C6.40796 21.9136 6.40986 21.9734 6.47466 22.011L6.93395 22.2762L7.28325 22.0745L6.82395 21.8093C6.75883 21.7717 6.65547 21.7704 6.59288 21.8068Z" fill="#FFC034"/>
<path d="M7.12054 21.5021L6.99789 21.5729C6.9353 21.6089 6.9372 21.6687 7.002 21.7063L7.4613 21.9715L7.81059 21.7698L7.35129 21.5046C7.28649 21.467 7.18313 21.4657 7.12054 21.5021Z" fill="#FFC034"/>
<path d="M7.64687 21.1984L7.52422 21.2692C7.46163 21.3052 7.46353 21.365 7.52865 21.4026L7.98794 21.6678L8.33724 21.4661L7.87794 21.2009C7.81282 21.1633 7.70946 21.162 7.64687 21.1984Z" fill="#FFC034"/>
<path d="M8.17324 20.8936L8.05059 20.9644C7.988 21.0004 7.9899 21.0601 8.05501 21.0978L8.51431 21.363L8.8636 21.1613L8.40431 20.8961C8.33919 20.8585 8.23583 20.8575 8.17324 20.8936Z" fill="#FFC034"/>
<path d="M8.70062 20.5898L8.57797 20.6607C8.51538 20.6967 8.51728 20.7564 8.58208 20.794L9.04138 21.0593L9.39067 20.8576L8.93137 20.5924C8.86657 20.5548 8.76321 20.5538 8.70062 20.5898Z" fill="#FFC034"/>
<path d="M9.22695 20.2852L9.1043 20.356C9.04171 20.392 9.04361 20.4517 9.10873 20.4894L9.56771 20.7546L9.917 20.5529L9.4577 20.2877C9.3929 20.2501 9.28954 20.2491 9.22695 20.2852Z" fill="#FFC034"/>
<path d="M9.75331 19.9814L9.63067 20.0523C9.56808 20.0883 9.56998 20.148 9.63509 20.1857L10.0944 20.4509L10.4437 20.2492L9.98439 19.984C9.91927 19.9464 9.8159 19.9454 9.75331 19.9814Z" fill="#FFC034"/>
<path d="M10.2797 19.6777L10.157 19.7485C10.0944 19.7846 10.0963 19.8443 10.1615 19.8819L10.6208 20.1472L10.9701 19.9455L10.5108 19.6803C10.4456 19.6426 10.3423 19.6417 10.2797 19.6777Z" fill="#FFC034"/>
<path d="M10.807 19.3741L10.6844 19.445C10.6218 19.481 10.6237 19.5407 10.6888 19.5783L11.1481 19.8436L11.4974 19.6419L11.0381 19.3767C10.973 19.3391 10.8696 19.3378 10.807 19.3741Z" fill="#FFC034"/>
<path d="M11.3334 19.0695L11.2107 19.1403C11.1482 19.1763 11.1501 19.236 11.2152 19.2737L11.6745 19.5389L12.0238 19.3372L11.5645 19.072C11.4993 19.0344 11.396 19.0331 11.3334 19.0695Z" fill="#FFC034"/>
<path d="M11.8595 18.7658L11.7371 18.8366C11.6746 18.8726 11.6765 18.9323 11.7413 18.97L12.2006 19.2352L12.5498 19.0335L12.0906 18.7683C12.0254 18.7307 11.9221 18.7294 11.8595 18.7658Z" fill="#FFC034"/>
<path d="M12.3862 18.4619L12.2635 18.5327C12.2009 18.5688 12.2028 18.6285 12.2676 18.6661L12.7269 18.9313L13.0762 18.7297L12.6169 18.4644C12.5521 18.4268 12.4488 18.4259 12.3862 18.4619Z" fill="#FFC034"/>
<path d="M12.9132 18.1572L12.7909 18.228C12.7283 18.2641 12.7302 18.3238 12.795 18.3614L13.2543 18.6266L13.6036 18.425L13.1443 18.1598C13.0791 18.1221 12.9758 18.1212 12.9132 18.1572Z" fill="#FFC034"/>
<path d="M13.4399 17.8535L13.3172 17.9243C13.2546 17.9604 13.2565 18.0201 13.3213 18.0577L13.7806 18.3229L14.1299 18.1213L13.6706 17.856C13.6058 17.8184 13.5025 17.8175 13.4399 17.8535Z" fill="#FFC034"/>
<path d="M13.9659 17.5498L13.8436 17.6206C13.781 17.6567 13.7829 17.7164 13.8477 17.754L14.307 18.0192L14.6563 17.8176L14.197 17.5523C14.1319 17.5147 14.0285 17.5138 13.9659 17.5498Z" fill="#FFC034"/>
<path d="M14.4936 17.245L14.3709 17.3158C14.3083 17.3518 14.3102 17.4116 14.375 17.4492L14.8343 17.7144L15.1836 17.5127L14.7243 17.2475C14.6595 17.2102 14.5562 17.209 14.4936 17.245Z" fill="#FFC034"/>
<path d="M15.0199 16.9413L14.8973 17.0121C14.8347 17.0481 14.8366 17.1079 14.9017 17.1455L15.361 17.4107L15.7103 17.209L15.251 16.9438C15.1859 16.9065 15.0825 16.9053 15.0199 16.9413Z" fill="#FFC034"/>
<path d="M15.5463 16.6368L15.4237 16.7077C15.3611 16.7437 15.363 16.8034 15.4278 16.841L15.8871 17.1063L16.2364 16.9046L15.7771 16.6394C15.7123 16.6018 15.6089 16.6005 15.5463 16.6368Z" fill="#FFC034"/>
<path d="M16.0727 16.3331L15.95 16.4039C15.8875 16.44 15.8893 16.4997 15.9541 16.5373L16.4134 16.8025L16.7627 16.6009L16.3034 16.3357C16.2386 16.298 16.1353 16.2968 16.0727 16.3331Z" fill="#FFC034"/>
<path d="M17.4926 15.5138L17.37 15.5846C17.3074 15.6206 17.3093 15.6804 17.3741 15.718L17.8334 15.9832L18.1827 15.7815L17.7234 15.5163C17.6589 15.4787 17.5552 15.4774 17.4926 15.5138Z" fill="#FFC034"/>
<path d="M18.019 15.209L17.8963 15.2798C17.8337 15.3158 17.8356 15.3756 17.9004 15.4132L18.3597 15.6784L18.709 15.4767L18.2497 15.2115C18.1852 15.1739 18.0816 15.173 18.019 15.209Z" fill="#FFC034"/>
<path d="M18.5463 14.9053L18.4236 14.9761C18.361 15.0121 18.3629 15.0719 18.4281 15.1095L18.8874 15.3747L19.2367 15.173L18.7774 14.9078C18.7126 14.8702 18.6089 14.8692 18.5463 14.9053Z" fill="#FFC034"/>
<path d="M19.0727 14.6016L18.95 14.6724C18.8875 14.7084 18.8893 14.7682 18.9541 14.8058L19.4134 15.071L19.7627 14.8693L19.3034 14.6041C19.239 14.5665 19.1353 14.5655 19.0727 14.6016Z" fill="#FFC034"/>
<path d="M19.5991 14.2969L19.4764 14.3677C19.4138 14.4037 19.4157 14.4635 19.4805 14.5011L19.9398 14.7663L20.2891 14.5646L19.8298 14.2994C19.7653 14.2618 19.6616 14.2608 19.5991 14.2969Z" fill="#FFC034"/>
<path d="M20.1264 13.9933L20.0038 14.0641C19.9412 14.1001 19.9431 14.1599 20.0079 14.1975L20.4672 14.4627L20.8164 14.261L20.3572 13.9958C20.2927 13.9582 20.189 13.9569 20.1264 13.9933Z" fill="#FFC034"/>
<path d="M20.6527 13.6896L20.5301 13.7604C20.4675 13.7964 20.4694 13.8562 20.5345 13.8938L20.9938 14.159L21.3431 13.9573L20.8838 13.6921C20.8187 13.6545 20.7153 13.6532 20.6527 13.6896Z" fill="#FFC034"/>
<path d="M21.1798 13.3849L21.0574 13.4557C20.9948 13.4917 20.9967 13.5515 21.0619 13.5891L21.5211 13.8543L21.8704 13.6526L21.4111 13.3874C21.346 13.3498 21.2423 13.3485 21.1798 13.3849Z" fill="#FFC034"/>
<path d="M21.7052 13.0811L21.5829 13.1519C21.5203 13.1879 21.5222 13.2476 21.587 13.2853L22.0463 13.5505L22.3956 13.3488L21.9363 13.0836C21.8715 13.046 21.7678 13.045 21.7052 13.0811Z" fill="#FFC034"/>
<path d="M22.2328 12.7773L22.1102 12.8482C22.0476 12.8842 22.0495 12.9439 22.1143 12.9815L22.5736 13.2468L22.9229 13.0451L22.4636 12.7799C22.3988 12.7423 22.2954 12.7413 22.2328 12.7773Z" fill="#FFC034"/>
<path d="M22.7592 12.4727L22.6366 12.5435C22.574 12.5795 22.5759 12.6392 22.6407 12.6769L23.1 12.9421L23.4493 12.7404L22.99 12.4752C22.9252 12.4376 22.8218 12.4366 22.7592 12.4727Z" fill="#FFC034"/>
<path d="M23.2853 12.1689L23.1629 12.2398C23.1003 12.2758 23.1022 12.3355 23.167 12.3732L23.6263 12.6384L23.9756 12.4367L23.5163 12.1715C23.4512 12.1339 23.3478 12.1329 23.2853 12.1689Z" fill="#FFC034"/>
<path d="M23.8116 11.8643L23.6893 11.9351C23.6267 11.9711 23.6286 12.0308 23.6934 12.0685L24.1527 12.3337L24.502 12.132L24.0427 11.8668C23.9776 11.8292 23.8742 11.8282 23.8116 11.8643Z" fill="#FFC034"/>
<path d="M24.3393 11.5607L24.2166 11.6315C24.1541 11.6675 24.1559 11.7273 24.2208 11.7649L24.68 12.0301L25.0293 11.8284L24.57 11.5632C24.5052 11.5256 24.4019 11.5243 24.3393 11.5607Z" fill="#FFC034"/>
<path d="M24.8656 11.257L24.743 11.3278C24.6804 11.3638 24.6823 11.4236 24.7474 11.4612L25.2067 11.7264L25.556 11.5247L25.0967 11.2595C25.0316 11.2219 24.9282 11.2206 24.8656 11.257Z" fill="#FFC034"/>
<path d="M25.392 10.9533L25.2693 11.0241C25.2068 11.0601 25.2086 11.1198 25.2738 11.1575L25.7331 11.4227L26.0824 11.221L25.6231 10.9558C25.5579 10.9182 25.4546 10.9169 25.392 10.9533Z" fill="#FFC034"/>
<path d="M25.9184 10.6484L25.7957 10.7192C25.7331 10.7553 25.735 10.815 25.8001 10.8526L26.2594 11.1178L26.6087 10.9162L26.1494 10.651C26.0843 10.6134 25.9809 10.6124 25.9184 10.6484Z" fill="#FFC034"/>
<path d="M26.4457 10.3447L26.3231 10.4155C26.2605 10.4516 26.2624 10.5113 26.3272 10.5489L26.7865 10.8141L27.1358 10.6125L26.6765 10.3473C26.6117 10.3096 26.5083 10.3087 26.4457 10.3447Z" fill="#FFC034"/>
<path d="M26.9721 10.041L26.8494 10.1118C26.7868 10.1479 26.7887 10.2076 26.8538 10.2452L27.3131 10.5104L27.6624 10.3088L27.2031 10.0435C27.138 10.0059 27.0347 10.005 26.9721 10.041Z" fill="#FFC034"/>
<path d="M27.4984 9.73633L27.3758 9.80713C27.3132 9.84317 27.3151 9.90292 27.3802 9.94054L27.8395 10.2057L28.1888 10.0041L27.7295 9.73886C27.6644 9.70125 27.561 9.70029 27.4984 9.73633Z" fill="#FFC034"/>
<path d="M28.0258 9.43251L27.9031 9.50331C27.8405 9.53935 27.8424 9.59909 27.9076 9.63671L28.3669 9.90191L28.7161 9.70024L28.2568 9.43503C28.1917 9.39773 28.0884 9.39647 28.0258 9.43251Z" fill="#FFC034"/>
<path d="M6.46255 21.4437L6.16763 21.6138L5.69727 21.3423V21.1757L5.99219 21.1719L6.46255 21.2771V21.4437Z" fill="#1F2023"/>
<path d="M6.46255 21.2777L6.16763 21.4478L5.69727 21.1762L5.99219 21.0059L6.46255 21.2777Z" fill="#4B4D54"/>
<path d="M7.98989 20.5625L7.69497 20.7329L7.22461 20.4611V20.2945L7.51953 20.291L7.98989 20.396V20.5625Z" fill="#1F2023"/>
<path d="M7.98989 20.3965L7.69497 20.5669L7.22461 20.2951L7.51953 20.125L7.98989 20.3965Z" fill="#4B4D54"/>
<path d="M9.51724 19.682L9.22231 19.8521L8.75195 19.5805V19.414L9.04688 19.4102L9.51724 19.5154V19.682Z" fill="#1F2023"/>
<path d="M9.51724 19.515L9.22231 19.6854L8.75195 19.4135L9.04688 19.2432L9.51724 19.515Z" fill="#4B4D54"/>
<path d="M11.041 18.8008L10.7461 18.9712L10.2754 18.6994V18.5331L10.5703 18.5293L11.041 18.6342V18.8008Z" fill="#1F2023"/>
<path d="M11.041 18.6338L10.7461 18.8042L10.2754 18.5327L10.5703 18.3623L11.041 18.6338Z" fill="#4B4D54"/>
<path d="M12.5664 17.9151L12.2715 18.0855L11.8008 17.8139V17.6473L12.0957 17.6436L12.5664 17.7488V17.9151Z" fill="#1F2023"/>
<path d="M12.5664 17.7484L12.2715 17.9185L11.8008 17.6469L12.0957 17.4766L12.5664 17.7484Z" fill="#4B4D54"/>
<path d="M14.0918 17.0384L13.7968 17.2088L13.3262 16.937V16.7704L13.6211 16.7666L14.0918 16.8719V17.0384Z" fill="#1F2023"/>
<path d="M14.0918 16.8721L13.7968 17.0425L13.3262 16.7706L13.6211 16.6006L14.0918 16.8721Z" fill="#4B4D54"/>
<path d="M15.6191 16.1576L15.3242 16.3277L14.8535 16.0561V15.8895L15.1484 15.8857L15.6191 15.991V16.1576Z" fill="#1F2023"/>
<path d="M15.6191 15.9906L15.3242 16.1607L14.8535 15.8891L15.1484 15.7188L15.6191 15.9906Z" fill="#4B4D54"/>
<path d="M17.8864 14.8477L17.5918 15.0181L17.1211 14.7462V14.5797L17.416 14.5762L17.8864 14.6811V14.8477Z" fill="#1F2023"/>
<path d="M17.8864 14.6807L17.5918 14.8511L17.1211 14.5792L17.416 14.4092L17.8864 14.6807Z" fill="#4B4D54"/>
<path d="M19.4137 13.9672L19.1188 14.1372L18.6484 13.8657V13.6991L18.9434 13.6953L19.4137 13.8006V13.9672Z" fill="#1F2023"/>
<path d="M19.4137 13.8002L19.1188 13.9702L18.6484 13.6987L18.9434 13.5283L19.4137 13.8002Z" fill="#4B4D54"/>
<path d="M20.9391 13.0762L20.6442 13.2466L20.1738 12.9747V12.8085L20.4688 12.8047L20.9391 12.9099V13.0762Z" fill="#1F2023"/>
<path d="M20.9391 12.9095L20.6442 13.0796L20.1738 12.8081L20.4688 12.6377L20.9391 12.9095Z" fill="#4B4D54"/>
<path d="M22.4645 12.2045L22.1696 12.3745L21.6992 12.103V11.9364L21.9941 11.9326L22.4645 12.0379V12.2045Z" fill="#1F2023"/>
<path d="M22.4645 12.0375L22.1696 12.2075L21.6992 11.936L21.9941 11.7656L22.4645 12.0375Z" fill="#4B4D54"/>
<path d="M23.9918 11.3233L23.6969 11.4937L23.2266 11.2218V11.0552L23.5215 11.0518L23.9918 11.1567V11.3233Z" fill="#1F2023"/>
<path d="M23.9918 11.1563L23.6969 11.3267L23.2266 11.0548L23.5215 10.8848L23.9918 11.1563Z" fill="#4B4D54"/>
<path d="M25.5192 10.4415L25.2243 10.6118L24.7539 10.3403V10.1737L25.0488 10.1699L25.5192 10.2752V10.4415Z" fill="#1F2023"/>
<path d="M25.5192 10.2758L25.2243 10.4458L24.7539 10.1743L25.0488 10.0039L25.5192 10.2758Z" fill="#4B4D54"/>
<path d="M27.0446 9.56059L26.7497 9.73097L26.2793 9.45912V9.29254L26.5742 9.28906L27.0446 9.39401V9.56059Z" fill="#1F2023"/>
<path d="M27.0446 9.3936L26.7497 9.56398L26.2793 9.29213L26.5742 9.12207L27.0446 9.3936Z" fill="#4B4D54"/>
<path d="M5.16387 20.9542V21.3L2.29492 19.6437V19.2979L5.16387 20.9542Z" fill="#333439"/>
<path d="M6.8784 19.964L5.16387 20.954L2.29492 19.2977L4.00946 18.3076L6.8784 19.964Z" fill="#4B4D54"/>
<path d="M6.8786 19.9639V20.3097L5.16406 21.2997V20.9539L6.8786 19.9639Z" fill="#1F2023"/>
<path d="M7.89433 19.3761V19.7219L5.02539 18.0655V17.7197L7.89433 19.3761Z" fill="#333439"/>
<path d="M9.60887 18.3868L7.89433 19.3766L5.02539 17.7202L6.73993 16.7305L9.60887 18.3868Z" fill="#4B4D54"/>
<path d="M9.60907 18.3867V18.7325L7.89453 19.7223V19.3764L9.60907 18.3867Z" fill="#1F2023"/>
<path d="M10.6264 17.799V18.1448L7.75781 16.4884V16.1426L10.6264 17.799Z" fill="#333439"/>
<path d="M12.341 16.8087L10.6264 17.7988L7.75781 16.1424L9.47204 15.1523L12.341 16.8087Z" fill="#4B4D54"/>
<path d="M12.3415 16.8096V17.1554L10.627 18.1454V17.7996L12.3415 16.8096Z" fill="#1F2023"/>
<path d="M13.3611 16.2218V16.5676L10.4922 14.9113V14.5654L13.3611 16.2218Z" fill="#333439"/>
<path d="M15.0757 15.2316L13.3611 16.2213L10.4922 14.5649L12.2067 13.5752L15.0757 15.2316Z" fill="#4B4D54"/>
<path d="M15.0759 15.2314V15.5773L13.3613 16.567V16.2212L15.0759 15.2314Z" fill="#1F2023"/>
<path d="M17.1167 14.0542V14.4L14.248 12.7433V12.3975L17.1167 14.0542Z" fill="#333439"/>
<path d="M18.8312 13.0636L17.1167 14.0536L14.248 12.3969L15.9626 11.4072L18.8312 13.0636Z" fill="#4B4D54"/>
<path d="M18.8308 13.0635V13.4093L17.1162 14.3993V14.0535L18.8308 13.0635Z" fill="#1F2023"/>
<path d="M19.8475 12.4757V12.8215L16.9785 11.1652V10.8193L19.8475 12.4757Z" fill="#333439"/>
<path d="M21.562 11.4868L19.8475 12.4765L16.9785 10.8201L18.6931 9.83008L21.562 11.4868Z" fill="#4B4D54"/>
<path d="M21.5622 11.4863V11.8321L19.8477 12.8219V12.476L21.5622 11.4863Z" fill="#1F2023"/>
<path d="M22.5799 10.8986V11.2441L19.7109 9.58768V9.24219L22.5799 10.8986Z" fill="#333439"/>
<path d="M24.2944 9.90833L22.5799 10.8984L19.7109 9.24198L21.4255 8.25195L24.2944 9.90833Z" fill="#4B4D54"/>
<path d="M24.2946 9.90918V10.255L22.5801 11.2447V10.8992L24.2946 9.90918Z" fill="#1F2023"/>
<path d="M25.3299 9.32044V9.66625L22.4609 8.00988V7.66406L25.3299 9.32044Z" fill="#333439"/>
<path d="M27.0444 8.33118L25.3299 9.32121L22.4609 7.66483L24.1755 6.6748L27.0444 8.33118Z" fill="#4B4D54"/>
<path d="M27.0446 8.33105V8.67687L25.3301 9.6669V9.32108L27.0446 8.33105Z" fill="#1F2023"/>
</svg>
