<svg width="30" height="30" viewBox="0 0 30 30" fill="none" xmlns="http://www.w3.org/2000/svg">
<path d="M27.8435 16.9712L26.8912 16.479L26.8863 15.1071L27.8435 14.5494L29.522 13.5718L30 13.2939L29.9948 13.1648L29.3497 12.7962L27.8435 13.6938L26.7766 14.3296L26.4444 14.1581L27.8435 13.3233L28.9097 12.6872L28.9044 12.5577L28.9037 12.5574L28.2594 12.1891L27.8435 12.4301L27.781 12.4666L27.4488 12.2951L27.8193 12.0797L27.8141 11.9502L27.169 11.5816L26.6906 11.8591L26.3584 11.6876L26.729 11.4722L26.7237 11.3428L26.723 11.3424L26.0787 10.9741L25.6003 11.2516L25.2681 11.0801L25.6386 10.8647L25.6334 10.7353L24.9883 10.3666L24.5099 10.6441L24.1777 10.4726L24.5486 10.2572L24.5434 10.1282L23.8984 9.75951L23.42 10.037L23.0878 9.86553L23.4583 9.65014L23.4531 9.52068L22.808 9.15203L22.3296 9.42953L21.9974 9.25804L22.3679 9.04266L22.3627 8.91356L21.7177 8.54491L21.2393 8.82243L20.9071 8.65093L21.2776 8.43554L21.2724 8.30646L20.6273 7.93817L20.1489 8.21568L19.8167 8.04419L20.1872 7.8288L20.182 7.69971L19.537 7.33105L17.4333 8.36449L15.8523 7.46647H14.1474L12.5667 8.36449L10.463 7.33105L9.81797 7.69971L9.81276 7.8288L10.1833 8.04419L9.85108 8.21568L9.37268 7.93817L8.72799 8.30646L8.72241 8.43554L9.09293 8.65093L8.76073 8.82243L8.28233 8.54491L7.63727 8.91356L7.63206 9.04266L8.00258 9.25804L7.67038 9.42953L7.19198 9.15203L6.54692 9.52068L6.54171 9.65014L6.91223 9.86553L6.58003 10.037L6.10163 9.75951L5.45695 10.1282L5.45137 10.2572L5.82226 10.4726L5.49006 10.6441L5.01166 10.3666L4.3666 10.7353L4.36139 10.8647L4.73191 11.0801L4.39971 11.2516L3.92131 10.9741L3.27699 11.3424L3.27625 11.3428L3.27104 11.4722L3.64156 11.6876L3.30936 11.8591L2.83096 11.5816L2.18628 11.9502L2.1807 12.0797L4.30671 13.3014L3.9745 13.4729L1.74061 12.1891L1.0963 12.5574L1.09556 12.5577L1.09035 12.6872L3.75539 14.1715L3.42319 14.343L0.650266 12.7966L0.00520805 13.1652L0 13.2943L0.478027 13.5722L3.81306 15.3597L3.28778 15.651L3.10848 16.4798L0.193815 17.9868L0.191211 18.0965L0.83664 18.4655L3.15535 17.2989L3.49685 17.4913L1.28974 18.6002L1.28714 18.7096L1.9322 19.079L4.24719 17.9139L4.58869 18.1066L2.38493 19.2137L2.38232 19.323L3.02775 19.6924L5.33977 18.5295L5.68127 18.7222L3.48085 19.8275L3.47788 19.9372L4.12331 20.3062L6.43197 19.1452L6.77347 19.3379L4.57641 20.4413L4.57381 20.5506L5.21886 20.9197L7.52418 19.7605L7.86568 19.9532L5.67159 21.0547L5.66899 21.1644L6.31442 21.5339L8.61639 20.3765L8.95789 20.5692L6.76752 21.6685H6.76715L7.40997 22.1473L9.70822 20.9922L10.0497 21.1849L7.86271 22.2827L7.8601 22.3921L8.50516 22.7611L10.8004 21.6079L11.1419 21.8006L8.95826 22.8965L8.95566 23.0062L9.60109 23.3756L11.8926 22.2239L12.2345 22.4166L10.0542 23.5103L10.0512 23.6197L10.6966 23.9891L12.9848 22.8392L14.0406 23.4344H15.9613L17.017 22.8392L19.3052 23.9891L19.9506 23.6197L19.9477 23.5103L17.7673 22.4166L18.1092 22.2239L20.4008 23.3756L21.0462 23.0062L21.0436 22.8965L18.8599 21.8006L19.2014 21.6079L21.4967 22.7611L22.1418 22.3921L22.1392 22.2827L19.9521 21.1849L20.2936 20.9922L22.5923 22.1473L23.2347 21.6685L21.044 20.5692L21.3855 20.3765L23.6871 21.5339L24.3325 21.1644L24.3299 21.0547L22.1358 19.9532L22.4773 19.7605L24.7826 20.9197L25.4277 20.5506L25.4251 20.4413L23.2276 19.3379L23.5691 19.1452L25.8778 20.3062L26.5232 19.9372L26.5206 19.8275L24.3199 18.7222L24.6614 18.5295L26.9734 19.6924L27.6188 19.323L27.6162 19.2137L25.4124 18.1066L25.7539 17.9139L27.8446 18.9655L28.0689 19.0782L28.714 18.7088L28.7114 18.5995L27.8446 18.1638L26.5043 17.4905L26.8458 17.2982L27.8446 17.8008L29.1645 18.4648L29.8099 18.0958L29.8073 17.986L27.8435 16.9712Z" fill="#ACD5EA"/>
<path fill-rule="evenodd" clip-rule="evenodd" d="M13.8749 7.7659L13.8801 7.63645L12.2336 6.82324L10.8833 7.55386L10.464 7.33103L9.82454 7.5706L9.81934 7.69968L10.2974 7.97795L11.6794 7.27523L13.2295 8.13493L13.8749 7.7659Z" fill="#939598"/>
<path fill-rule="evenodd" clip-rule="evenodd" d="M13.8811 7.63649L12.3321 6.76562L11.6855 7.14582L13.2357 8.0059L13.8811 7.63649Z" fill="#E6E7E8"/>
<path fill-rule="evenodd" clip-rule="evenodd" d="M10.3027 7.84854L11.6847 7.14619L12.3313 6.76562L10.9478 7.47951L10.3027 7.84854Z" fill="#D1D3D4"/>
<path fill-rule="evenodd" clip-rule="evenodd" d="M10.9487 7.47967L10.4703 7.20215L9.8252 7.5708L10.3032 7.8487L10.9487 7.47967Z" fill="#E6E7E8"/>
<path fill-rule="evenodd" clip-rule="evenodd" d="M12.7851 8.37334L12.7907 8.24387L11.1438 7.43066L9.79343 8.16129L9.37418 7.93846L8.7347 8.17802L8.72949 8.30712L9.20752 8.58537L10.5895 7.88266L12.1397 8.74236L12.7851 8.37334Z" fill="#939598"/>
<path fill-rule="evenodd" clip-rule="evenodd" d="M12.7903 8.24294L11.2413 7.37207L10.5947 7.75264L12.1449 8.61234L12.7903 8.24294Z" fill="#E6E7E8"/>
<path fill-rule="evenodd" clip-rule="evenodd" d="M9.21289 8.45536L10.5949 7.75264L11.2414 7.37207L9.85795 8.08633L9.21289 8.45536Z" fill="#D1D3D4"/>
<path fill-rule="evenodd" clip-rule="evenodd" d="M9.85783 8.08611L9.37943 7.80859L8.73438 8.17725L9.2124 8.45552L9.85783 8.08611Z" fill="#E6E7E8"/>
<path fill-rule="evenodd" clip-rule="evenodd" d="M11.6933 8.97977L11.6989 8.85068L10.0524 8.03711L8.70163 8.76772L8.28275 8.54527L7.6429 8.78447L7.6377 8.91392L8.11572 9.19182L9.49809 8.48909L11.0479 9.3488L11.6933 8.97977Z" fill="#939598"/>
<path fill-rule="evenodd" clip-rule="evenodd" d="M11.6985 8.85072L10.1495 7.97949L9.50293 8.36005L11.0531 9.21975L11.6985 8.85072Z" fill="#E6E7E8"/>
<path fill-rule="evenodd" clip-rule="evenodd" d="M8.12012 9.06277L9.50212 8.36005L10.149 7.97949L8.76517 8.69374L8.12012 9.06277Z" fill="#D1D3D4"/>
<path fill-rule="evenodd" clip-rule="evenodd" d="M8.76506 8.69353L8.28666 8.41602L7.6416 8.78467L8.12 9.06293L8.76506 8.69353Z" fill="#E6E7E8"/>
<path fill-rule="evenodd" clip-rule="evenodd" d="M10.6035 9.58817L10.609 9.45871L8.96254 8.64551L7.61179 9.37576L7.19291 9.15329L6.55306 9.39287L6.54785 9.52195L7.02588 9.79984L8.40825 9.09749L9.9584 9.9572L10.6035 9.58817Z" fill="#939598"/>
<path fill-rule="evenodd" clip-rule="evenodd" d="M10.6087 9.45815L9.05963 8.58691L8.41309 8.96748L9.96323 9.82719L10.6087 9.45815Z" fill="#E6E7E8"/>
<path fill-rule="evenodd" clip-rule="evenodd" d="M7.03027 9.66983L8.41227 8.9671L9.05919 8.58691L7.67533 9.30079L7.03027 9.66983Z" fill="#D1D3D4"/>
<path fill-rule="evenodd" clip-rule="evenodd" d="M7.67521 9.30095L7.19682 9.02344L6.55176 9.39209L7.03016 9.66999L7.67521 9.30095Z" fill="#E6E7E8"/>
<path fill-rule="evenodd" clip-rule="evenodd" d="M9.51203 10.1946L9.51724 10.0655L7.87074 9.25195L6.51999 9.98258L6.10111 9.75975L5.46126 9.99931L5.45605 10.1284L5.93445 10.4067L7.31645 9.70394L8.8666 10.5636L9.51203 10.1946Z" fill="#939598"/>
<path fill-rule="evenodd" clip-rule="evenodd" d="M9.51686 10.0652L7.96784 9.19434L7.32129 9.5749L8.87144 10.4346L9.51686 10.0652Z" fill="#E6E7E8"/>
<path fill-rule="evenodd" clip-rule="evenodd" d="M5.93945 10.2772L7.32145 9.5749L7.96837 9.19434L6.58451 9.90822L5.93945 10.2772Z" fill="#D1D3D4"/>
<path fill-rule="evenodd" clip-rule="evenodd" d="M6.58402 9.90838L6.106 9.63086L5.46094 9.99952L5.93896 10.2778L6.58402 9.90838Z" fill="#E6E7E8"/>
<path fill-rule="evenodd" clip-rule="evenodd" d="M8.42181 10.802L8.42702 10.6729L6.78053 9.85938L5.42977 10.59L5.0109 10.3675L4.37142 10.6067L4.36621 10.7362L4.84424 11.0141L6.22624 10.3114L7.77638 11.1714L8.42181 10.802Z" fill="#939598"/>
<path fill-rule="evenodd" clip-rule="evenodd" d="M8.42702 10.673L6.87799 9.80176L6.23145 10.1823L7.78196 11.042L8.42702 10.673Z" fill="#E6E7E8"/>
<path fill-rule="evenodd" clip-rule="evenodd" d="M4.84961 10.885L6.23161 10.1823L6.87853 9.80176L5.49467 10.5156L4.84961 10.885Z" fill="#D1D3D4"/>
<path fill-rule="evenodd" clip-rule="evenodd" d="M5.49455 10.5148L5.01615 10.2373L4.37109 10.606L4.84912 10.8842L5.49455 10.5148Z" fill="#E6E7E8"/>
<path fill-rule="evenodd" clip-rule="evenodd" d="M7.33197 11.4091L7.33718 11.28L5.69068 10.4668L4.3403 11.197L3.92105 10.9746L3.28158 11.2138L3.27637 11.3432L3.75439 11.6211L5.13639 10.9188L6.68654 11.7785L7.33197 11.4091Z" fill="#939598"/>
<path fill-rule="evenodd" clip-rule="evenodd" d="M7.33718 11.28L5.78852 10.4092L5.1416 10.7894L6.69175 11.6494L7.33718 11.28Z" fill="#E6E7E8"/>
<path fill-rule="evenodd" clip-rule="evenodd" d="M3.75977 11.4921L5.14139 10.7894L5.78831 10.4092L4.40482 11.1231L3.75977 11.4921Z" fill="#D1D3D4"/>
<path fill-rule="evenodd" clip-rule="evenodd" d="M4.40568 11.1222L3.92728 10.8447L3.28223 11.2138L3.76025 11.4916L4.40568 11.1222Z" fill="#E6E7E8"/>
<path fill-rule="evenodd" clip-rule="evenodd" d="M6.2425 12.0159L6.24771 11.8864L4.60121 11.0732L3.25083 11.8035L2.83158 11.581L2.1921 11.8206L2.18652 11.9497L2.66492 12.2279L4.04692 11.5252L5.59707 12.3849L6.2425 12.0159Z" fill="#939598"/>
<path fill-rule="evenodd" clip-rule="evenodd" d="M6.24733 11.8865L4.69868 11.0156L4.05176 11.3962L5.60228 12.2559L6.24733 11.8865Z" fill="#E6E7E8"/>
<path fill-rule="evenodd" clip-rule="evenodd" d="M2.66992 12.0985L4.05192 11.3962L4.69847 11.0156L3.31498 11.7295L2.66992 12.0985Z" fill="#D1D3D4"/>
<path fill-rule="evenodd" clip-rule="evenodd" d="M3.31584 11.7297L2.83744 11.4521L2.19238 11.8208L2.67041 12.0987L3.31584 11.7297Z" fill="#E6E7E8"/>
<path fill-rule="evenodd" clip-rule="evenodd" d="M5.15228 12.6233L5.15749 12.4942L3.51099 11.6807L2.16062 12.4113L1.74174 12.1884L1.10189 12.428L1.09668 12.5575L1.57471 12.8354L2.95671 12.1326L4.50685 12.9924L5.15228 12.6233Z" fill="#939598"/>
<path fill-rule="evenodd" clip-rule="evenodd" d="M5.15809 12.4939L3.60944 11.623L2.96289 12.0036L4.51304 12.8633L5.15809 12.4939Z" fill="#E6E7E8"/>
<path fill-rule="evenodd" clip-rule="evenodd" d="M1.58008 12.7059L2.96208 12.0036L3.609 11.623L2.22514 12.3369L1.58008 12.7059Z" fill="#D1D3D4"/>
<path fill-rule="evenodd" clip-rule="evenodd" d="M2.226 12.3371L1.7476 12.0596L1.10254 12.4282L1.58094 12.7061L2.226 12.3371Z" fill="#E6E7E8"/>
<path fill-rule="evenodd" clip-rule="evenodd" d="M4.06244 13.2311L4.06765 13.1017L2.42152 12.2881L1.07077 13.0187L0.651894 12.7962L0.012044 13.0354L0.00683594 13.1649L0.484863 13.4428L1.86723 12.7404L3.41701 13.6002L4.06244 13.2311Z" fill="#939598"/>
<path fill-rule="evenodd" clip-rule="evenodd" d="M4.06862 13.1017L2.51959 12.2305L1.87305 12.611L3.42319 13.4707L4.06862 13.1017Z" fill="#E6E7E8"/>
<path fill-rule="evenodd" clip-rule="evenodd" d="M0.490234 13.3134L1.87223 12.6107L2.51915 12.2305L1.13529 12.9443L0.490234 13.3134Z" fill="#D1D3D4"/>
<path fill-rule="evenodd" clip-rule="evenodd" d="M1.13518 12.9449L0.656776 12.667L0.0117188 13.0356L0.490117 13.3139L1.13518 12.9449Z" fill="#E6E7E8"/>
<path fill-rule="evenodd" clip-rule="evenodd" d="M15.9275 7.72L15.9219 7.59091L17.5684 6.77734L18.9188 7.50796L19.338 7.28513L19.9775 7.5247L19.9831 7.65378L19.5047 7.93204L18.1227 7.22933L16.5725 8.08904L15.9275 7.72Z" fill="#939598"/>
<path fill-rule="evenodd" clip-rule="evenodd" d="M15.9219 7.59096L17.4709 6.71973L18.1175 7.10028L16.5673 7.95999L15.9219 7.59096Z" fill="#E6E7E8"/>
<path fill-rule="evenodd" clip-rule="evenodd" d="M19.4986 7.80263L18.1166 7.10028L17.4697 6.71973L18.8536 7.4336L19.4986 7.80263Z" fill="#D1D3D4"/>
<path fill-rule="evenodd" clip-rule="evenodd" d="M18.8545 7.43377L19.3329 7.15625L19.9776 7.52492L19.4995 7.80317L18.8545 7.43377Z" fill="#E6E7E8"/>
<path fill-rule="evenodd" clip-rule="evenodd" d="M17.0189 8.32743L17.0137 8.19835L18.6602 7.38477L20.0109 8.11538L20.4298 7.89292L21.0693 8.13213L21.0749 8.26158L20.5965 8.53947L19.2145 7.83713L17.6643 8.69683L17.0189 8.32743Z" fill="#939598"/>
<path fill-rule="evenodd" clip-rule="evenodd" d="M17.0146 8.19839L18.5633 7.32715L19.2102 7.70771L17.6601 8.56741L17.0146 8.19839Z" fill="#E6E7E8"/>
<path fill-rule="evenodd" clip-rule="evenodd" d="M20.5914 8.41042L19.2094 7.70771L18.5625 7.32715L19.9464 8.0414L20.5914 8.41042Z" fill="#D1D3D4"/>
<path fill-rule="evenodd" clip-rule="evenodd" d="M19.9473 8.04021L20.4257 7.7627L21.0707 8.13135L20.5927 8.40961L19.9473 8.04021Z" fill="#E6E7E8"/>
<path fill-rule="evenodd" clip-rule="evenodd" d="M18.1087 8.93485L18.1035 8.80539L19.75 7.99219L21.1008 8.72244L21.5196 8.49997L22.1591 8.73955L22.1643 8.86864L21.6863 9.14652L20.3043 8.44417L18.7542 9.30388L18.1087 8.93485Z" fill="#939598"/>
<path fill-rule="evenodd" clip-rule="evenodd" d="M18.1045 8.80544L19.6531 7.93457L20.3001 8.31476L18.7495 9.17447L18.1045 8.80544Z" fill="#E6E7E8"/>
<path fill-rule="evenodd" clip-rule="evenodd" d="M21.6813 9.01748L20.2989 8.31476L19.6523 7.93457L21.0362 8.64845L21.6813 9.01748Z" fill="#D1D3D4"/>
<path fill-rule="evenodd" clip-rule="evenodd" d="M21.0371 8.64763L21.5155 8.37012L22.1606 8.73877L21.6825 9.01666L21.0371 8.64763Z" fill="#E6E7E8"/>
<path fill-rule="evenodd" clip-rule="evenodd" d="M19.1986 9.54129L19.1934 9.4122L20.8399 8.59863L22.1902 9.32887L22.6095 9.10642L23.249 9.34598L23.2542 9.47507L22.7761 9.75296L21.3941 9.05062L19.844 9.91031L19.1986 9.54129Z" fill="#939598"/>
<path fill-rule="evenodd" clip-rule="evenodd" d="M19.1934 9.41188L20.742 8.54102L21.3886 8.92158L19.8384 9.78129L19.1934 9.41188Z" fill="#E6E7E8"/>
<path fill-rule="evenodd" clip-rule="evenodd" d="M22.7698 9.62393L21.3878 8.92158L20.7412 8.54102L22.1251 9.2549L22.7698 9.62393Z" fill="#D1D3D4"/>
<path fill-rule="evenodd" clip-rule="evenodd" d="M22.125 9.25506L22.6034 8.97754L23.2485 9.3462L22.7704 9.62409L22.125 9.25506Z" fill="#E6E7E8"/>
<path fill-rule="evenodd" clip-rule="evenodd" d="M20.2888 10.1487L20.2832 10.0196L21.9301 9.20605L23.2805 9.93667L23.6997 9.71421L24.3392 9.95341L24.3444 10.0825L23.8664 10.3608L22.4844 9.65804L20.9338 10.5177L20.2888 10.1487Z" fill="#939598"/>
<path fill-rule="evenodd" clip-rule="evenodd" d="M20.2832 10.0197L21.8322 9.14844L22.4788 9.529L20.9286 10.3887L20.2832 10.0197Z" fill="#E6E7E8"/>
<path fill-rule="evenodd" clip-rule="evenodd" d="M23.8606 10.2313L22.4786 9.529L21.832 9.14844L23.2155 9.86232L23.8606 10.2313Z" fill="#D1D3D4"/>
<path fill-rule="evenodd" clip-rule="evenodd" d="M23.2148 9.86248L23.6932 9.58496L24.3383 9.95362L23.8603 10.2319L23.2148 9.86248Z" fill="#E6E7E8"/>
<path fill-rule="evenodd" clip-rule="evenodd" d="M21.3786 10.7558L21.373 10.6267L23.0199 9.81348L24.3703 10.5437L24.7895 10.3213L25.429 10.5605L25.4342 10.6899L24.9562 10.9678L23.5738 10.2655L22.0237 11.1252L21.3786 10.7558Z" fill="#939598"/>
<path fill-rule="evenodd" clip-rule="evenodd" d="M21.373 10.6271L22.9221 9.75586L23.5686 10.1364L22.0185 10.9961L21.373 10.6271Z" fill="#E6E7E8"/>
<path fill-rule="evenodd" clip-rule="evenodd" d="M24.9514 10.8388L23.5694 10.1361L22.9229 9.75586L24.3063 10.4697L24.9514 10.8388Z" fill="#D1D3D4"/>
<path fill-rule="evenodd" clip-rule="evenodd" d="M24.3057 10.4695L24.7841 10.1924L25.4288 10.561L24.9511 10.8389L24.3057 10.4695Z" fill="#E6E7E8"/>
<path fill-rule="evenodd" clip-rule="evenodd" d="M22.4685 11.3636L22.4629 11.2341L24.1094 10.4209L25.4601 11.1515L25.879 10.9287L26.5185 11.1683L26.5241 11.2973L26.046 11.5756L24.6637 10.8729L23.1139 11.7326L22.4685 11.3636Z" fill="#939598"/>
<path fill-rule="evenodd" clip-rule="evenodd" d="M22.4619 11.2341L24.0109 10.3633L24.6575 10.7435L23.1073 11.6036L22.4619 11.2341Z" fill="#E6E7E8"/>
<path fill-rule="evenodd" clip-rule="evenodd" d="M26.0397 11.4462L24.6577 10.7438L24.0107 10.3633L25.3946 11.0772L26.0397 11.4462Z" fill="#D1D3D4"/>
<path fill-rule="evenodd" clip-rule="evenodd" d="M25.3945 11.0773L25.8729 10.7998L26.5176 11.1685L26.0396 11.4464L25.3945 11.0773Z" fill="#E6E7E8"/>
<path fill-rule="evenodd" clip-rule="evenodd" d="M23.5579 11.971L23.5527 11.8415L25.1992 11.0283L26.55 11.7589L26.9689 11.5361L27.6083 11.7757L27.6139 11.9051L27.1355 12.183L25.7535 11.4803L24.2034 12.34L23.5579 11.971Z" fill="#939598"/>
<path fill-rule="evenodd" clip-rule="evenodd" d="M23.5518 11.8406L25.1008 10.9697L25.7473 11.3503L24.1972 12.21L23.5518 11.8406Z" fill="#E6E7E8"/>
<path fill-rule="evenodd" clip-rule="evenodd" d="M27.1295 12.053L25.7475 11.3503L25.1006 10.9697L26.4844 11.684L27.1295 12.053Z" fill="#D1D3D4"/>
<path fill-rule="evenodd" clip-rule="evenodd" d="M26.4844 11.6838L26.9628 11.4062L27.6078 11.7749L27.1298 12.0532L26.4844 11.6838Z" fill="#E6E7E8"/>
<path fill-rule="evenodd" clip-rule="evenodd" d="M24.6497 12.5778L24.6445 12.4483L26.291 11.6348L27.6418 12.3654L28.0607 12.1429L28.7001 12.3825L28.7057 12.5116L28.2273 12.7895L26.8453 12.0871L25.2952 12.9468L24.6497 12.5778Z" fill="#939598"/>
<path fill-rule="evenodd" clip-rule="evenodd" d="M24.6445 12.4484L26.1936 11.5771L26.8401 11.9577L25.2896 12.8174L24.6445 12.4484Z" fill="#E6E7E8"/>
<path fill-rule="evenodd" clip-rule="evenodd" d="M28.2213 12.6601L26.8389 11.9577L26.1924 11.5771L27.5762 12.2914L28.2213 12.6601Z" fill="#D1D3D4"/>
<path fill-rule="evenodd" clip-rule="evenodd" d="M27.5771 12.2912L28.0555 12.0137L28.7006 12.3827L28.2226 12.6606L27.5771 12.2912Z" fill="#E6E7E8"/>
<path fill-rule="evenodd" clip-rule="evenodd" d="M25.7415 13.1858L25.7363 13.0564L27.3828 12.2432L28.7336 12.9734L29.1525 12.751L29.7919 12.9905L29.7971 13.1196L29.3191 13.3975L27.9371 12.6951L26.387 13.5549L25.7415 13.1858Z" fill="#939598"/>
<path fill-rule="evenodd" clip-rule="evenodd" d="M25.7373 13.0558L27.286 12.1846L27.9325 12.5655L26.3824 13.4248L25.7373 13.0558Z" fill="#E6E7E8"/>
<path fill-rule="evenodd" clip-rule="evenodd" d="M29.3137 13.2675L27.9317 12.5651L27.2852 12.1846L28.669 12.8985L29.3137 13.2675Z" fill="#D1D3D4"/>
<path fill-rule="evenodd" clip-rule="evenodd" d="M28.6689 12.8986L29.1473 12.6211L29.7924 12.9898L29.3144 13.2676L28.6689 12.8986Z" fill="#E6E7E8"/>
<path fill-rule="evenodd" clip-rule="evenodd" d="M3.1084 14.2662L14.1473 7.99609H15.934L26.9543 14.2618L26.9539 15.8075L15.9976 21.9686H14.0394L3.10877 15.806L3.1084 14.2662Z" fill="#58595B"/>
<path fill-rule="evenodd" clip-rule="evenodd" d="M3.1084 13.4225L14.1473 7.15234H15.934L26.9543 13.4184L26.9539 14.9637L15.9976 21.1252H14.0394L3.10877 14.9622L3.1084 13.4225Z" fill="#414042"/>
<path fill-rule="evenodd" clip-rule="evenodd" d="M3.1084 13.1145L14.1473 6.84473H15.934L26.9543 13.1104L26.9539 14.6561L15.9976 20.8176H14.0394L3.10877 14.6546L3.1084 13.1145Z" fill="#58595B"/>
<path fill-rule="evenodd" clip-rule="evenodd" d="M3.1084 12.2702L14.1473 6H15.934L26.9543 12.2657L26.9539 13.8114L15.9976 19.9729H14.0394L3.10877 13.8099L3.1084 12.2702Z" fill="url(#paint0_linear_195_2390)"/>
<path fill-rule="evenodd" clip-rule="evenodd" d="M11.7235 21.3449L13.2725 20.4736L13.922 20.7448L13.9194 20.8542L12.4318 21.6793L11.2369 23.6684L10.6949 23.9891L10.0498 23.6197L10.0524 23.5103L10.5282 23.3422L11.7257 21.346L11.7235 21.3449Z" fill="#939598"/>
<path fill-rule="evenodd" clip-rule="evenodd" d="M10.5303 23.2328L11.7292 21.2344L12.371 21.6049L11.1753 23.6018L10.5303 23.2328Z" fill="#D1D3D4"/>
<path fill-rule="evenodd" clip-rule="evenodd" d="M10.6281 20.7316L12.1772 19.8604L12.8263 20.1315L12.8233 20.2409L11.3361 21.066L10.1412 23.0548L9.59953 23.3758L8.9541 23.0064L8.95671 22.897L9.4325 22.7289L10.63 20.7323L10.6281 20.7316Z" fill="#939598"/>
<path fill-rule="evenodd" clip-rule="evenodd" d="M9.43457 22.6185L10.6335 20.6201L11.2756 20.9906L10.08 22.9879L9.43457 22.6185Z" fill="#D1D3D4"/>
<path fill-rule="evenodd" clip-rule="evenodd" d="M8.95703 22.8967L9.43543 22.6191L10.0805 22.9878L9.60246 23.2657L8.95703 22.8967Z" fill="#E6E7E8"/>
<path fill-rule="evenodd" clip-rule="evenodd" d="M9.5334 20.1173L11.0824 19.2461L11.7316 19.5169L11.729 19.6267L10.2413 20.4518L9.04682 22.4409L8.5048 22.7615L7.85938 22.3921L7.86235 22.2828L8.33815 22.1146L9.53526 20.1184L9.5334 20.1173Z" fill="#939598"/>
<path fill-rule="evenodd" clip-rule="evenodd" d="M8.33984 22.0049L9.53919 20.0068L10.1809 20.377L8.98527 22.3743L8.33984 22.0049Z" fill="#D1D3D4"/>
<path fill-rule="evenodd" clip-rule="evenodd" d="M7.8623 22.2828L8.3407 22.0049L8.98576 22.3739L8.50736 22.6518L7.8623 22.2828Z" fill="#E6E7E8"/>
<path fill-rule="evenodd" clip-rule="evenodd" d="M8.4377 19.5041L9.98673 18.6328L10.6362 18.904L10.6333 19.0134L9.14599 19.8385L7.95111 21.8276L7.4091 22.1483L6.76367 21.7789L6.76665 21.6695L7.24244 21.5013L8.43993 19.5048L8.4377 19.5041Z" fill="#939598"/>
<path fill-rule="evenodd" clip-rule="evenodd" d="M7.24414 21.3906L8.44311 19.3926L9.08482 19.7631L7.8892 21.76L7.24414 21.3906Z" fill="#D1D3D4"/>
<path fill-rule="evenodd" clip-rule="evenodd" d="M6.7666 21.6688L7.245 21.3916L7.89006 21.7603L7.41203 22.0381L6.7666 21.6688Z" fill="#E6E7E8"/>
<path fill-rule="evenodd" clip-rule="evenodd" d="M7.34199 18.8898L8.89102 18.0186L9.54017 18.2897L9.5372 18.3991L8.04992 19.2242L6.85504 21.213L6.3134 21.534L5.66797 21.1646L5.67057 21.0552L6.14637 20.8871L7.34385 18.8905L7.34199 18.8898Z" fill="#939598"/>
<path fill-rule="evenodd" clip-rule="evenodd" d="M6.14844 20.7773L7.34741 18.7793L7.98949 19.1494L6.7935 21.1467L6.14844 20.7773Z" fill="#D1D3D4"/>
<path fill-rule="evenodd" clip-rule="evenodd" d="M5.6709 21.0549L6.1493 20.7773L6.79435 21.146L6.31633 21.4239L5.6709 21.0549Z" fill="#E6E7E8"/>
<path fill-rule="evenodd" clip-rule="evenodd" d="M6.24727 18.2761L7.7963 17.4053L8.44545 17.6761L8.44284 17.7858L6.95519 18.6109L5.76031 20.5997L5.21867 20.9204L4.57324 20.5513L4.57622 20.442L5.05164 20.2738L6.24913 18.2776L6.24727 18.2761Z" fill="#939598"/>
<path fill-rule="evenodd" clip-rule="evenodd" d="M5.05371 20.1635L6.25306 18.165L6.89477 18.5356L5.69914 20.5328L5.05371 20.1635Z" fill="#D1D3D4"/>
<path fill-rule="evenodd" clip-rule="evenodd" d="M4.57617 20.4416L5.05457 20.1641L5.69963 20.5327L5.22123 20.8106L4.57617 20.4416Z" fill="#E6E7E8"/>
<path fill-rule="evenodd" clip-rule="evenodd" d="M5.15119 17.6619L6.70022 16.791L7.34974 17.0618L7.34677 17.1716L5.85949 17.9967L4.66461 19.9854L4.1226 20.3065L3.47754 19.9371L3.48014 19.8277L3.95594 19.6595L5.15305 17.663L5.15119 17.6619Z" fill="#939598"/>
<path fill-rule="evenodd" clip-rule="evenodd" d="M3.95801 19.5492L5.15735 17.5508L5.79906 17.9213L4.60344 19.9186L3.95801 19.5492Z" fill="#D1D3D4"/>
<path fill-rule="evenodd" clip-rule="evenodd" d="M3.48047 19.8277L3.95887 19.5498L4.60393 19.9188L4.1259 20.1967L3.48047 19.8277Z" fill="#E6E7E8"/>
<path fill-rule="evenodd" clip-rule="evenodd" d="M4.05586 17.0486L5.60452 16.1777L6.25404 16.4486L6.25106 16.5583L4.76379 17.383L3.5689 19.3725L3.02727 19.6932L2.38184 19.3238L2.38444 19.2144L2.86023 19.0463L4.05772 17.0497L4.05586 17.0486Z" fill="#939598"/>
<path fill-rule="evenodd" clip-rule="evenodd" d="M2.8623 18.9359L4.06128 16.9375L4.70336 17.308L3.50736 19.3053L2.8623 18.9359Z" fill="#D1D3D4"/>
<path fill-rule="evenodd" clip-rule="evenodd" d="M2.38477 19.214L2.86316 18.9365L3.50822 19.3056L3.0302 19.5834L2.38477 19.214Z" fill="#E6E7E8"/>
<path fill-rule="evenodd" clip-rule="evenodd" d="M2.96016 16.4343L4.50919 15.5635L5.15834 15.8343L5.15573 15.944L3.66808 16.7691L2.4732 18.7579L1.93156 19.0789L1.28613 18.7095L1.28911 18.5998L1.76453 18.432L2.96202 16.4355L2.96016 16.4343Z" fill="#939598"/>
<path fill-rule="evenodd" clip-rule="evenodd" d="M1.76758 18.3217L2.96655 16.3232L3.60863 16.6938L2.41301 18.6911L1.76758 18.3217Z" fill="#D1D3D4"/>
<path fill-rule="evenodd" clip-rule="evenodd" d="M1.28906 18.5998L1.76746 18.3223L2.41252 18.6913L1.93412 18.9692L1.28906 18.5998Z" fill="#E6E7E8"/>
<path fill-rule="evenodd" clip-rule="evenodd" d="M1.86408 15.8201L3.41311 14.9492L4.06226 15.22L4.05966 15.3294L2.57238 16.1549L1.3775 18.1436L0.835487 18.4643L0.19043 18.0953L0.193034 17.9855L0.668828 17.8178L1.86594 15.8212L1.86408 15.8201Z" fill="#939598"/>
<path fill-rule="evenodd" clip-rule="evenodd" d="M11.7275 21.2351L13.2766 20.3643L13.9227 20.7444L12.3726 21.6045L11.7275 21.2351Z" fill="url(#paint1_linear_195_2390)"/>
<path fill-rule="evenodd" clip-rule="evenodd" d="M10.6318 20.6212L12.1809 19.75L12.8274 20.1306L11.2773 20.9903L10.6318 20.6212Z" fill="url(#paint2_linear_195_2390)"/>
<path fill-rule="evenodd" clip-rule="evenodd" d="M9.53613 20.008L11.0852 19.1367L11.7317 19.5173L10.1816 20.377L9.53613 20.008Z" fill="url(#paint3_linear_195_2390)"/>
<path fill-rule="evenodd" clip-rule="evenodd" d="M8.44141 19.3937L9.99044 18.5225L10.6366 18.903L9.08646 19.7631L8.44141 19.3937Z" fill="url(#paint4_linear_195_2390)"/>
<path fill-rule="evenodd" clip-rule="evenodd" d="M7.3457 18.78L8.89473 17.9092L9.54128 18.2894L7.99113 19.1491L7.3457 18.78Z" fill="url(#paint5_linear_195_2390)"/>
<path fill-rule="evenodd" clip-rule="evenodd" d="M6.25 18.1662L7.79903 17.2949L8.44558 17.6755L6.89543 18.5352L6.25 18.1662Z" fill="url(#paint6_linear_195_2390)"/>
<path fill-rule="evenodd" clip-rule="evenodd" d="M5.15527 17.5529L6.7043 16.6816L7.35048 17.0622L5.80033 17.9219L5.15527 17.5529Z" fill="url(#paint7_linear_195_2390)"/>
<path fill-rule="evenodd" clip-rule="evenodd" d="M4.05957 16.9386L5.60823 16.0674L6.25515 16.4479L4.705 17.3076L4.05957 16.9386Z" fill="url(#paint8_linear_195_2390)"/>
<path fill-rule="evenodd" clip-rule="evenodd" d="M2.96387 16.3253L4.5129 15.4541L5.15944 15.8347L3.6093 16.6944L2.96387 16.3253Z" fill="url(#paint9_linear_195_2390)"/>
<path fill-rule="evenodd" clip-rule="evenodd" d="M1.86914 15.7111L3.4178 14.8398L4.06434 15.2204L2.5142 16.0801L1.86914 15.7111Z" fill="url(#paint10_linear_195_2390)"/>
<path fill-rule="evenodd" clip-rule="evenodd" d="M0.671875 17.7084L1.87122 15.71L2.51293 16.0805L1.3173 18.0778L0.671875 17.7084Z" fill="#D1D3D4"/>
<path fill-rule="evenodd" clip-rule="evenodd" d="M0.193359 17.9855L0.671758 17.708L1.31682 18.0767L0.838789 18.3549L0.193359 17.9855Z" fill="#E6E7E8"/>
<path fill-rule="evenodd" clip-rule="evenodd" d="M18.2958 21.3449L16.7472 20.4736L16.0977 20.7448L16.1006 20.8542L17.5879 21.6793L18.7828 23.6684L19.3244 23.9891L19.9699 23.6197L19.9673 23.5103L19.4915 23.3422L18.294 21.346L18.2958 21.3449Z" fill="#939598"/>
<path fill-rule="evenodd" clip-rule="evenodd" d="M18.2932 21.2351L16.7442 20.3643L16.0977 20.7444L17.6478 21.6045L18.2932 21.2351Z" fill="url(#paint11_linear_195_2390)"/>
<path fill-rule="evenodd" clip-rule="evenodd" d="M19.4895 23.2328L18.2905 21.2344L17.6484 21.6049L18.8444 23.6018L19.4895 23.2328Z" fill="#D1D3D4"/>
<path fill-rule="evenodd" clip-rule="evenodd" d="M19.9668 23.5109L19.4884 23.2334L18.8438 23.6021L19.3218 23.8799L19.9668 23.5109Z" fill="#E6E7E8"/>
<path fill-rule="evenodd" clip-rule="evenodd" d="M19.3915 20.7316L17.8425 19.8604L17.1934 20.1315L17.196 20.2409L18.6832 21.066L19.8785 23.0548L20.4201 23.3758L21.0656 23.0064L21.0626 22.897L20.5868 22.7289L19.3897 20.7323L19.3915 20.7316Z" fill="#939598"/>
<path fill-rule="evenodd" clip-rule="evenodd" d="M19.3889 20.6212L17.8399 19.75L17.1934 20.1306L18.7435 20.9903L19.3889 20.6212Z" fill="url(#paint12_linear_195_2390)"/>
<path fill-rule="evenodd" clip-rule="evenodd" d="M20.5842 22.6185L19.3849 20.6201L18.7432 20.9906L19.9388 22.9879L20.5842 22.6185Z" fill="#D1D3D4"/>
<path fill-rule="evenodd" clip-rule="evenodd" d="M21.0629 22.8967L20.5845 22.6191L19.9395 22.9878L20.4175 23.2657L21.0629 22.8967Z" fill="#E6E7E8"/>
<path fill-rule="evenodd" clip-rule="evenodd" d="M20.4866 20.1173L18.9376 19.2461L18.2881 19.5169L18.2911 19.6267L19.7783 20.4518L20.9732 22.4409L21.5152 22.7615L22.1603 22.3921L22.1577 22.2828L21.6819 22.1146L20.4844 20.1184L20.4866 20.1173Z" fill="#939598"/>
<path fill-rule="evenodd" clip-rule="evenodd" d="M20.4837 20.008L18.935 19.1367L18.2881 19.5173L19.8386 20.377L20.4837 20.008Z" fill="url(#paint13_linear_195_2390)"/>
<path fill-rule="evenodd" clip-rule="evenodd" d="M21.6799 22.0049L20.4806 20.0068L19.8389 20.377L21.0345 22.3743L21.6799 22.0049Z" fill="#D1D3D4"/>
<path fill-rule="evenodd" clip-rule="evenodd" d="M22.1586 22.2828L21.6802 22.0049L21.0352 22.3739L21.5132 22.6518L22.1586 22.2828Z" fill="#E6E7E8"/>
<path fill-rule="evenodd" clip-rule="evenodd" d="M21.582 19.5041L20.0333 18.6328L19.3838 18.904L19.3868 19.0134L20.874 19.8385L22.0689 21.8276L22.6106 22.1483L23.256 21.7789L23.2534 21.6695L22.7776 21.5013L21.5801 19.5048L21.582 19.5041Z" fill="#939598"/>
<path fill-rule="evenodd" clip-rule="evenodd" d="M21.5794 19.3937L20.0303 18.5225L19.3838 18.903L20.9339 19.7631L21.5794 19.3937Z" fill="url(#paint14_linear_195_2390)"/>
<path fill-rule="evenodd" clip-rule="evenodd" d="M22.7756 21.3906L21.5767 19.3926L20.9346 19.7631L22.1306 21.76L22.7756 21.3906Z" fill="#D1D3D4"/>
<path fill-rule="evenodd" clip-rule="evenodd" d="M23.2543 21.6688L22.7759 21.3916L22.1309 21.7603L22.6089 22.0381L23.2543 21.6688Z" fill="#E6E7E8"/>
<path fill-rule="evenodd" clip-rule="evenodd" d="M22.6777 18.8898L21.1286 18.0186L20.4795 18.2897L20.4821 18.3991L21.9694 19.2242L23.1646 21.213L23.7063 21.534L24.3517 21.1646L24.3487 21.0552L23.8729 20.8871L22.6758 18.8905L22.6777 18.8898Z" fill="#939598"/>
<path fill-rule="evenodd" clip-rule="evenodd" d="M22.6751 18.78L21.126 17.9092L20.4795 18.2894L22.0296 19.1491L22.6751 18.78Z" fill="url(#paint15_linear_195_2390)"/>
<path fill-rule="evenodd" clip-rule="evenodd" d="M23.8704 20.7773L22.671 18.7793L22.0293 19.1494L23.2249 21.1467L23.8704 20.7773Z" fill="#D1D3D4"/>
<path fill-rule="evenodd" clip-rule="evenodd" d="M24.349 21.0549L23.8706 20.7773L23.2256 21.146L23.7036 21.4239L24.349 21.0549Z" fill="#E6E7E8"/>
<path fill-rule="evenodd" clip-rule="evenodd" d="M23.7728 18.2752L22.2237 17.4043L21.5742 17.6751L21.5772 17.7849L23.0645 18.61L24.2594 20.5987L24.8014 20.9194L25.4468 20.5503L25.4438 20.441L24.968 20.2728L23.7705 18.2766L23.7728 18.2752Z" fill="#939598"/>
<path fill-rule="evenodd" clip-rule="evenodd" d="M23.7704 18.1662L22.2217 17.2949L21.5752 17.6755L23.1253 18.5352L23.7704 18.1662Z" fill="url(#paint16_linear_195_2390)"/>
<path fill-rule="evenodd" clip-rule="evenodd" d="M24.9661 20.1635L23.7667 18.165L23.125 18.5356L24.3206 20.5328L24.9661 20.1635Z" fill="#D1D3D4"/>
<path fill-rule="evenodd" clip-rule="evenodd" d="M25.4447 20.4416L24.9663 20.1641L24.3213 20.5327L24.7993 20.8106L25.4447 20.4416Z" fill="#E6E7E8"/>
<path fill-rule="evenodd" clip-rule="evenodd" d="M24.8685 17.6619L23.3194 16.791L22.6699 17.0618L22.6729 17.1716L24.1602 17.9967L25.3551 19.9854L25.8967 20.3065L26.5421 19.9371L26.5395 19.8277L26.0634 19.6595L24.8662 17.663L24.8685 17.6619Z" fill="#939598"/>
<path fill-rule="evenodd" clip-rule="evenodd" d="M24.8655 17.5529L23.3165 16.6816L22.6699 17.0622L24.2201 17.9219L24.8655 17.5529Z" fill="url(#paint17_linear_195_2390)"/>
<path fill-rule="evenodd" clip-rule="evenodd" d="M26.0618 19.5492L24.8628 17.5508L24.2207 17.9213L25.4167 19.9186L26.0618 19.5492Z" fill="#D1D3D4"/>
<path fill-rule="evenodd" clip-rule="evenodd" d="M26.5405 19.8277L26.062 19.5498L25.417 19.9188L25.895 20.1967L26.5405 19.8277Z" fill="#E6E7E8"/>
<path fill-rule="evenodd" clip-rule="evenodd" d="M25.9638 17.0476L24.4151 16.1768L23.7656 16.4476L23.7682 16.5573L25.2559 17.3821L26.4508 19.3715L26.9924 19.6922L27.6378 19.3228L27.6349 19.2134L27.1591 19.0453L25.9619 17.0487L25.9638 17.0476Z" fill="#939598"/>
<path fill-rule="evenodd" clip-rule="evenodd" d="M25.9612 16.9386L24.4122 16.0674L23.7656 16.4479L25.3158 17.3076L25.9612 16.9386Z" fill="url(#paint18_linear_195_2390)"/>
<path fill-rule="evenodd" clip-rule="evenodd" d="M27.1565 18.9359L25.9571 16.9375L25.3154 17.308L26.5114 19.3053L27.1565 18.9359Z" fill="#D1D3D4"/>
<path fill-rule="evenodd" clip-rule="evenodd" d="M27.6348 19.2131L27.1564 18.9355L26.5117 19.3046L26.9897 19.5825L27.6348 19.2131Z" fill="#E6E7E8"/>
<path fill-rule="evenodd" clip-rule="evenodd" d="M27.0599 16.4343L25.5108 15.5635L24.8613 15.8343L24.8643 15.944L26.3516 16.7691L27.5465 18.7579L28.0885 19.0789L28.7339 18.7095L28.7309 18.5998L28.2551 18.432L27.058 16.4355L27.0599 16.4343Z" fill="#939598"/>
<path fill-rule="evenodd" clip-rule="evenodd" d="M27.0565 16.3253L25.5079 15.4541L24.8613 15.8347L26.4115 16.6944L27.0565 16.3253Z" fill="url(#paint19_linear_195_2390)"/>
<path fill-rule="evenodd" clip-rule="evenodd" d="M28.2522 18.3217L27.0528 16.3232L26.4111 16.6938L27.6068 18.6911L28.2522 18.3217Z" fill="#D1D3D4"/>
<path fill-rule="evenodd" clip-rule="evenodd" d="M28.7309 18.5998L28.2525 18.3223L27.6074 18.6913L28.0855 18.9692L28.7309 18.5998Z" fill="#E6E7E8"/>
<path fill-rule="evenodd" clip-rule="evenodd" d="M28.1556 15.8201L26.6066 14.9492L25.957 15.22L25.96 15.3294L27.4473 16.1549L28.6422 18.1436L29.1838 18.4643L29.8292 18.0953L29.8266 17.9855L29.3508 17.8178L28.1534 15.8212L28.1556 15.8201Z" fill="#939598"/>
<path fill-rule="evenodd" clip-rule="evenodd" d="M28.1526 15.7111L26.6039 14.8398L25.957 15.2204L27.5072 16.0801L28.1526 15.7111Z" fill="url(#paint20_linear_195_2390)"/>
<path fill-rule="evenodd" clip-rule="evenodd" d="M29.3479 17.7084L28.1489 15.71L27.5068 16.0805L28.7028 18.0778L29.3479 17.7084Z" fill="#D1D3D4"/>
<path fill-rule="evenodd" clip-rule="evenodd" d="M29.8266 17.9855L29.3482 17.708L28.7031 18.0767L29.1812 18.3549L29.8266 17.9855Z" fill="#E6E7E8"/>
<path fill-rule="evenodd" clip-rule="evenodd" d="M7.38379 12.5269L14.4638 8.50586H15.6099L22.678 12.5243L22.6777 13.5156L15.6509 17.4675H14.395L7.38416 13.5149L7.38379 12.5269Z" fill="#90C440"/>
<path fill-rule="evenodd" clip-rule="evenodd" d="M8.5791 12.5991L14.5524 9.20605H15.5196L21.4825 12.5965V13.4332L15.5538 16.7671H14.4944L8.57947 13.4324L8.5791 12.5991Z" fill="#E6E7E8"/>
<defs>
<linearGradient id="paint0_linear_195_2390" x1="14.0124" y1="4.73868" x2="16.0392" y2="21.2458" gradientUnits="userSpaceOnUse">
<stop stop-color="#808285"/>
<stop offset="0.62" stop-color="#808285"/>
<stop offset="1" stop-color="white"/>
</linearGradient>
<linearGradient id="paint1_linear_195_2390" x1="13.3224" y1="20.1623" x2="12.3279" y2="21.8174" gradientUnits="userSpaceOnUse">
<stop stop-color="#E6E7E8"/>
<stop offset="0.45" stop-color="#E6E7E8"/>
<stop offset="0.64" stop-color="white"/>
<stop offset="1" stop-color="white"/>
</linearGradient>
<linearGradient id="paint2_linear_195_2390" x1="12.2268" y1="19.5485" x2="11.2322" y2="21.2038" gradientUnits="userSpaceOnUse">
<stop stop-color="#E6E7E8"/>
<stop offset="0.45" stop-color="#E6E7E8"/>
<stop offset="0.64" stop-color="white"/>
<stop offset="1" stop-color="white"/>
</linearGradient>
<linearGradient id="paint3_linear_195_2390" x1="11.1314" y1="18.935" x2="10.1366" y2="20.5905" gradientUnits="userSpaceOnUse">
<stop stop-color="#E6E7E8"/>
<stop offset="0.45" stop-color="#E6E7E8"/>
<stop offset="0.64" stop-color="white"/>
<stop offset="1" stop-color="white"/>
</linearGradient>
<linearGradient id="paint4_linear_195_2390" x1="10.0365" y1="18.3205" x2="9.04153" y2="19.9764" gradientUnits="userSpaceOnUse">
<stop stop-color="#E6E7E8"/>
<stop offset="0.45" stop-color="#E6E7E8"/>
<stop offset="0.64" stop-color="white"/>
<stop offset="1" stop-color="white"/>
</linearGradient>
<linearGradient id="paint5_linear_195_2390" x1="8.94079" y1="17.707" x2="7.946" y2="19.3626" gradientUnits="userSpaceOnUse">
<stop stop-color="#E6E7E8"/>
<stop offset="0.45" stop-color="#E6E7E8"/>
<stop offset="0.64" stop-color="white"/>
<stop offset="1" stop-color="white"/>
</linearGradient>
<linearGradient id="paint6_linear_195_2390" x1="7.8452" y1="17.0932" x2="6.85052" y2="18.7486" gradientUnits="userSpaceOnUse">
<stop stop-color="#E6E7E8"/>
<stop offset="0.45" stop-color="#E6E7E8"/>
<stop offset="0.64" stop-color="white"/>
<stop offset="1" stop-color="white"/>
</linearGradient>
<linearGradient id="paint7_linear_195_2390" x1="6.75006" y1="16.4801" x2="5.75557" y2="18.1353" gradientUnits="userSpaceOnUse">
<stop stop-color="#E6E7E8"/>
<stop offset="0.45" stop-color="#E6E7E8"/>
<stop offset="0.64" stop-color="white"/>
<stop offset="1" stop-color="white"/>
</linearGradient>
<linearGradient id="paint8_linear_195_2390" x1="5.65473" y1="15.8653" x2="4.65996" y2="17.521" gradientUnits="userSpaceOnUse">
<stop stop-color="#E6E7E8"/>
<stop offset="0.45" stop-color="#E6E7E8"/>
<stop offset="0.64" stop-color="white"/>
<stop offset="1" stop-color="white"/>
</linearGradient>
<linearGradient id="paint9_linear_195_2390" x1="4.55903" y1="15.2524" x2="3.56459" y2="16.9074" gradientUnits="userSpaceOnUse">
<stop stop-color="#E6E7E8"/>
<stop offset="0.45" stop-color="#E6E7E8"/>
<stop offset="0.64" stop-color="white"/>
<stop offset="1" stop-color="white"/>
</linearGradient>
<linearGradient id="paint10_linear_195_2390" x1="3.46393" y1="14.6383" x2="2.46948" y2="16.2933" gradientUnits="userSpaceOnUse">
<stop stop-color="#E6E7E8"/>
<stop offset="0.45" stop-color="#E6E7E8"/>
<stop offset="0.64" stop-color="white"/>
<stop offset="1" stop-color="white"/>
</linearGradient>
<linearGradient id="paint11_linear_195_2390" x1="16.6746" y1="20.1563" x2="17.7165" y2="21.8237" gradientUnits="userSpaceOnUse">
<stop stop-color="#E6E7E8"/>
<stop offset="0.45" stop-color="#E6E7E8"/>
<stop offset="0.64" stop-color="white"/>
<stop offset="1" stop-color="white"/>
</linearGradient>
<linearGradient id="paint12_linear_195_2390" x1="17.7701" y1="19.5423" x2="18.812" y2="21.2097" gradientUnits="userSpaceOnUse">
<stop stop-color="#E6E7E8"/>
<stop offset="0.45" stop-color="#E6E7E8"/>
<stop offset="0.64" stop-color="white"/>
<stop offset="1" stop-color="white"/>
</linearGradient>
<linearGradient id="paint13_linear_195_2390" x1="18.8649" y1="18.9288" x2="19.9072" y2="20.5968" gradientUnits="userSpaceOnUse">
<stop stop-color="#E6E7E8"/>
<stop offset="0.45" stop-color="#E6E7E8"/>
<stop offset="0.64" stop-color="white"/>
<stop offset="1" stop-color="white"/>
</linearGradient>
<linearGradient id="paint14_linear_195_2390" x1="19.9607" y1="18.3148" x2="21.0025" y2="19.982" gradientUnits="userSpaceOnUse">
<stop stop-color="#E6E7E8"/>
<stop offset="0.45" stop-color="#E6E7E8"/>
<stop offset="0.64" stop-color="white"/>
<stop offset="1" stop-color="white"/>
</linearGradient>
<linearGradient id="paint15_linear_195_2390" x1="21.0563" y1="17.7011" x2="22.0981" y2="19.3683" gradientUnits="userSpaceOnUse">
<stop stop-color="#E6E7E8"/>
<stop offset="0.45" stop-color="#E6E7E8"/>
<stop offset="0.64" stop-color="white"/>
<stop offset="1" stop-color="white"/>
</linearGradient>
<linearGradient id="paint16_linear_195_2390" x1="22.1518" y1="17.087" x2="23.1939" y2="18.7547" gradientUnits="userSpaceOnUse">
<stop stop-color="#E6E7E8"/>
<stop offset="0.45" stop-color="#E6E7E8"/>
<stop offset="0.64" stop-color="white"/>
<stop offset="1" stop-color="white"/>
</linearGradient>
<linearGradient id="paint17_linear_195_2390" x1="23.2468" y1="16.4739" x2="24.2886" y2="18.141" gradientUnits="userSpaceOnUse">
<stop stop-color="#E6E7E8"/>
<stop offset="0.45" stop-color="#E6E7E8"/>
<stop offset="0.64" stop-color="white"/>
<stop offset="1" stop-color="white"/>
</linearGradient>
<linearGradient id="paint18_linear_195_2390" x1="24.3423" y1="15.8594" x2="25.3844" y2="17.527" gradientUnits="userSpaceOnUse">
<stop stop-color="#E6E7E8"/>
<stop offset="0.45" stop-color="#E6E7E8"/>
<stop offset="0.64" stop-color="white"/>
<stop offset="1" stop-color="white"/>
</linearGradient>
<linearGradient id="paint19_linear_195_2390" x1="25.438" y1="15.2462" x2="26.4802" y2="16.9141" gradientUnits="userSpaceOnUse">
<stop stop-color="#E6E7E8"/>
<stop offset="0.45" stop-color="#E6E7E8"/>
<stop offset="0.64" stop-color="white"/>
<stop offset="1" stop-color="white"/>
</linearGradient>
<linearGradient id="paint20_linear_195_2390" x1="26.534" y1="14.6322" x2="27.5757" y2="16.2993" gradientUnits="userSpaceOnUse">
<stop stop-color="#E6E7E8"/>
<stop offset="0.45" stop-color="#E6E7E8"/>
<stop offset="0.64" stop-color="white"/>
<stop offset="1" stop-color="white"/>
</linearGradient>
</defs>
</svg>
