<svg width="30" height="30" viewBox="0 0 30 30" fill="none" xmlns="http://www.w3.org/2000/svg">
<path fill-rule="evenodd" clip-rule="evenodd" d="M0.256062 18.437L16.3241 9.31334C17.3821 8.71251 18.5827 8.71063 19.6427 9.3079L29.4423 14.8297C29.7958 15.0289 29.9994 15.3768 30 15.7822C30.0006 16.1879 29.7981 16.5362 29.4454 16.7366L13.4489 25.8163C12.9198 26.1167 12.3194 26.1176 11.7895 25.8188L0.257313 19.3169C0.0943457 19.2251 0.000418751 19.0644 3.50259e-07 18.8774C-0.00020885 18.6903 0.0933036 18.5295 0.256062 18.437Z" fill="#ACD5EA"/>
<path fill-rule="evenodd" clip-rule="evenodd" d="M0.98225 19.1012L3.3776 17.714L1.23203 16.9473L0.661133 18.652L0.98225 19.1012Z" fill="#414042"/>
<path fill-rule="evenodd" clip-rule="evenodd" d="M9.59277 24.0061V22.6766L11.4398 21.7666L11.4049 23.0218L9.59277 24.0061Z" fill="#414042"/>
<path fill-rule="evenodd" clip-rule="evenodd" d="M0.478516 17.4827L9.58984 22.6778L10.4873 22.1465L1.26741 17.1777L0.478516 17.4827Z" fill="#414042"/>
<path fill-rule="evenodd" clip-rule="evenodd" d="M9.58984 22.6775V24.007L5.64452 21.7581V20.9947L5.48972 20.7506L1.14566 18.3496L0.981228 18.4173V19.1L0.478516 18.8134V17.4824L9.58984 22.6775Z" fill="#808285"/>
<path fill-rule="evenodd" clip-rule="evenodd" d="M4.86512 14.3897L16.1952 7.95636C17.2132 7.37834 18.3682 7.37646 19.388 7.95113L25.4668 11.3764H29.3529V14.1803C29.3535 14.5704 29.1587 14.9058 28.8192 15.0985L13.4287 23.8343C12.9198 24.1232 12.3407 24.1265 11.8321 23.8366L0.736751 17.5099C0.580479 17.4208 0.489676 17.267 0.489258 17.0869V14.3897H4.86512Z" fill="#58595B"/>
<path fill-rule="evenodd" clip-rule="evenodd" d="M12.3062 24.0173C12.1444 23.983 11.9848 23.9238 11.8321 23.8365L0.736739 17.5099C0.580466 17.4208 0.489676 17.267 0.489258 17.0869V14.3896H2.29947L12.3059 20.1393L12.3062 24.0173Z" fill="#808285"/>
<path fill-rule="evenodd" clip-rule="evenodd" d="M0.735488 13.9844L16.195 5.20636C17.213 4.62834 18.368 4.62646 19.3878 5.20113L28.8161 10.5138C29.156 10.7054 29.352 11.0401 29.3527 11.4303C29.3533 11.8205 29.1585 12.1558 28.819 12.3485L13.4285 21.0845C12.9195 21.3734 12.3419 21.3742 11.8319 21.0868L0.736739 14.8313C0.579839 14.7428 0.489677 14.5884 0.489258 14.4085C0.489049 14.2281 0.578796 14.0735 0.735488 13.9844Z" fill="#414042"/>
<path fill-rule="evenodd" clip-rule="evenodd" d="M0.735704 13.5967L16.1952 4.81867C17.2132 4.24065 18.3682 4.23876 19.388 4.81344L28.8163 10.1261C29.1562 10.3177 29.3522 10.6524 29.3529 11.0426C29.3535 11.4328 29.1587 11.7681 28.8192 11.9608L13.4287 20.6966C12.9198 20.9855 12.3422 20.9863 11.8321 20.6989L0.736751 14.4434C0.579851 14.3549 0.489676 14.2005 0.489258 14.0206C0.489258 13.8404 0.579013 13.6856 0.735704 13.5967Z" fill="#B1B3B6"/>
<path fill-rule="evenodd" clip-rule="evenodd" d="M0.735704 13.2129L16.1952 4.43488C17.2132 3.85686 18.3682 3.85498 19.388 4.42965L28.8163 9.7423C29.1562 9.93393 29.3522 10.2686 29.3529 10.6588C29.3535 11.049 29.1587 11.3843 28.8192 11.577L13.4287 20.3128C12.9198 20.6017 12.3422 20.6025 11.8321 20.3151L0.736751 14.0596C0.579851 13.9711 0.489676 13.8167 0.489258 13.6366C0.489258 13.4564 0.579013 13.3016 0.735704 13.2129Z" fill="url(#paint0_linear_195_1994)"/>
<path fill-rule="evenodd" clip-rule="evenodd" d="M4.86312 11.9591L5.92983 11.3534C6.41769 11.0765 6.96516 11.0639 7.46535 11.3183C7.74568 11.461 8.09882 11.5505 8.48375 11.5605C9.41428 11.585 10.1818 11.1369 10.1971 10.5591C10.2015 10.3917 10.1423 10.2321 10.0335 10.0888C9.88643 9.89531 9.83602 9.67105 9.8856 9.43319C9.93518 9.19532 10.0712 9.00997 10.2833 8.89115L12.2441 7.79368L20.9293 6.91504C23.8732 8.18447 27.3066 10.8447 23.9979 13.1768C23.5849 13.468 23.11 13.5492 22.6236 13.4122C22.4284 13.3572 22.2142 13.3241 21.9891 13.318C21.0586 13.2936 20.2912 13.7417 20.2758 14.3197C20.2737 14.3986 20.2858 14.4762 20.3105 14.5509C20.4335 14.9218 20.2812 15.3182 19.9412 15.5111L13.6594 19.0767C13.2284 19.3215 12.7395 19.3223 12.3077 19.0788L10.1291 17.8506C9.89272 17.7173 9.74858 17.4972 9.72096 17.2272C9.69314 16.9571 9.78958 16.7123 9.99397 16.5339C10.1793 16.372 10.2904 16.1738 10.296 15.9577C10.3111 15.3799 9.56887 14.8906 8.63834 14.8661C7.9802 14.8488 7.40365 15.0678 7.11704 15.4023C6.86265 15.6992 6.44404 15.773 6.10346 15.581L4.99323 14.955C4.61374 14.7412 4.47127 14.2653 4.67064 13.8779C4.71897 13.7841 4.74617 13.6844 4.74889 13.5802C4.75286 13.4222 4.70035 13.2708 4.60287 13.1339C4.465 12.9402 4.42045 12.7208 4.47191 12.4886C4.52337 12.2566 4.65643 12.0764 4.86312 11.9591Z" fill="#B1B3B6"/>
<path fill-rule="evenodd" clip-rule="evenodd" d="M4.86291 11.6983L5.92963 11.0927C6.41748 10.8157 6.96495 10.8032 7.46515 11.0576C7.74548 11.2002 8.09862 11.2898 8.48355 11.2998C9.41407 11.3243 10.1816 10.8762 10.1969 10.2984C10.2013 10.131 10.1421 9.97138 10.0333 9.82808C9.88623 9.63457 9.83582 9.41031 9.8854 9.17244C9.93498 8.93458 10.071 8.74923 10.2831 8.6304L12.2439 7.53294L20.9291 6.6543C23.873 7.92373 27.3064 10.5839 23.9977 12.9161C23.5847 13.2073 23.1098 13.2885 22.6234 13.1514C22.4282 13.0964 22.214 13.0634 21.9889 13.0575C21.0584 13.033 20.291 13.4811 20.2755 14.0592C20.2735 14.138 20.2856 14.2156 20.3103 14.2903C20.4333 14.6612 20.281 15.0577 19.941 15.2506L13.6594 18.816C13.2284 19.0607 12.7395 19.0616 12.3077 18.8181L10.1291 17.5898C9.89272 17.4566 9.74858 17.2365 9.72096 16.9664C9.69314 16.6963 9.78958 16.4516 9.99397 16.2731C10.1793 16.1112 10.2904 15.9131 10.2961 15.697C10.3111 15.1192 9.56888 14.6301 8.63835 14.6056C7.98021 14.5882 7.40364 14.8073 7.11704 15.1416C6.86265 15.4384 6.44405 15.5123 6.10347 15.3202L4.99324 14.6943C4.61375 14.4803 4.47129 14.0046 4.67065 13.6171C4.71898 13.5234 4.74617 13.4236 4.74889 13.3196C4.75286 13.1617 4.70035 13.0102 4.60287 12.8732C4.465 12.6795 4.42045 12.46 4.47191 12.228C4.52317 11.9958 4.65622 11.8157 4.86291 11.6983Z" fill="url(#paint1_linear_195_1994)"/>
<path fill-rule="evenodd" clip-rule="evenodd" d="M3.10796 12.6258C3.86673 12.6459 4.47195 13.0444 4.45961 13.5157C4.44705 13.9871 3.82154 14.3528 3.06277 14.3327C2.304 14.3126 1.69858 13.9141 1.71113 13.4427C1.72368 12.9714 2.34919 12.6055 3.10796 12.6258Z" fill="#414042"/>
<path fill-rule="evenodd" clip-rule="evenodd" d="M3.10796 12.535C3.86673 12.5553 4.47195 12.9536 4.45961 13.4249C4.44705 13.8962 3.82154 14.2619 3.06277 14.2418C2.304 14.2218 1.69858 13.8232 1.71113 13.3519C1.72368 12.8806 2.34919 12.5149 3.10796 12.535Z" fill="#808285"/>
<path fill-rule="evenodd" clip-rule="evenodd" d="M8.4771 15.1238C9.23587 15.1439 9.84109 15.5424 9.82875 16.0138C9.8162 16.4851 9.19068 16.8508 8.43191 16.8307C7.67314 16.8106 7.06772 16.4121 7.08027 15.9408C7.09261 15.4694 7.71833 15.1038 8.4771 15.1238Z" fill="#414042"/>
<path fill-rule="evenodd" clip-rule="evenodd" d="M8.4771 15.032C9.23587 15.0523 9.84109 15.4506 9.82875 15.922C9.8162 16.3933 9.19068 16.759 8.43191 16.7389C7.67314 16.7188 7.06772 16.3203 7.08027 15.849C7.09261 15.3778 7.71833 15.012 8.4771 15.032Z" fill="#808285"/>
<path fill-rule="evenodd" clip-rule="evenodd" d="M8.59624 9.45782C9.35501 9.4779 9.96023 9.87643 9.94789 10.3478C9.93534 10.8189 9.30983 11.1848 8.55106 11.1647C7.79228 11.1446 7.18686 10.7461 7.19941 10.2747C7.21196 9.80342 7.83747 9.43774 8.59624 9.45782Z" fill="#414042"/>
<path fill-rule="evenodd" clip-rule="evenodd" d="M8.59624 9.36798C9.35501 9.38827 9.96023 9.78659 9.94789 10.2579C9.93534 10.729 9.30983 11.0949 8.55106 11.0748C7.79228 11.0548 7.18686 10.6562 7.19941 10.1849C7.21196 9.71358 7.83747 9.34789 8.59624 9.36798Z" fill="#808285"/>
<path fill-rule="evenodd" clip-rule="evenodd" d="M16.4341 5.09063C17.1929 5.11092 17.7981 5.50924 17.7858 5.98057C17.7732 6.4519 17.1477 6.81758 16.3889 6.7975C15.6302 6.77742 15.0247 6.37889 15.0373 5.90756C15.0496 5.43644 15.6752 5.07055 16.4341 5.09063Z" fill="#414042"/>
<path fill-rule="evenodd" clip-rule="evenodd" d="M16.4341 4.99884C17.1929 5.01892 17.7981 5.41745 17.7858 5.88877C17.7732 6.35989 17.1477 6.72579 16.3889 6.7057C15.6302 6.68562 15.0247 6.28709 15.0373 5.81576C15.0496 5.34444 15.6752 4.97875 16.4341 4.99884Z" fill="#808285"/>
<path fill-rule="evenodd" clip-rule="evenodd" d="M21.9062 14.4937C21.6497 14.506 21.4357 14.3868 21.4279 14.2276C21.4204 14.0684 21.6221 13.9292 21.8784 13.9169C22.1348 13.9046 22.3488 14.0238 22.3566 14.183C22.3643 14.3422 22.1627 14.4813 21.9062 14.4937Z" fill="#808285"/>
<path fill-rule="evenodd" clip-rule="evenodd" d="M21.9053 14.4348C21.7026 14.4445 21.5336 14.3505 21.5275 14.2246C21.5214 14.0989 21.6808 13.9888 21.8836 13.9792C22.0863 13.9696 22.2553 14.0637 22.2614 14.1894C22.2675 14.3152 22.108 14.425 21.9053 14.4348Z" fill="#A7A9AC"/>
<path fill-rule="evenodd" clip-rule="evenodd" d="M21.9016 14.3999C21.6989 14.4097 21.5297 14.3154 21.5236 14.1896C21.5175 14.0637 21.677 13.9539 21.8797 13.944C22.0824 13.9344 22.2516 14.0286 22.2575 14.1543C22.2638 14.2802 22.1043 14.3903 21.9016 14.3999Z" fill="#D1D3D4"/>
<path d="M22.0333 14.2904C22.0235 14.2904 22.0137 14.2877 22.0049 14.282L21.7225 14.1008C21.698 14.0852 21.6909 14.0525 21.7066 14.028C21.7223 14.0036 21.7549 13.9967 21.7794 14.0121L22.0618 14.1933C22.0863 14.209 22.0934 14.2416 22.0777 14.2661C22.0677 14.2818 22.0507 14.2904 22.0333 14.2904Z" fill="#6D6E71"/>
<path d="M21.7451 14.2798C21.7265 14.2798 21.7083 14.27 21.6989 14.2524C21.6849 14.2269 21.6943 14.1948 21.7198 14.1808L22.0139 14.0202C22.0399 14.0061 22.0717 14.0156 22.0855 14.0413C22.0995 14.0668 22.0903 14.0988 22.0646 14.1128L21.7704 14.2735C21.7623 14.2777 21.7537 14.2798 21.7451 14.2798Z" fill="#6D6E71"/>
<path fill-rule="evenodd" clip-rule="evenodd" d="M12.7753 20.0601C12.5188 20.0724 12.3048 19.9532 12.2971 19.794C12.2895 19.6348 12.4912 19.4956 12.7475 19.4833C13.004 19.471 13.218 19.5902 13.2257 19.7494C13.2335 19.9088 13.0318 20.0479 12.7753 20.0601Z" fill="#808285"/>
<path fill-rule="evenodd" clip-rule="evenodd" d="M12.7696 19.9993C12.5669 20.0091 12.3978 19.915 12.3918 19.7891C12.3857 19.6633 12.5451 19.5533 12.7478 19.5437C12.9505 19.5338 13.1196 19.6282 13.1256 19.7539C13.1317 19.8796 12.9723 19.9897 12.7696 19.9993Z" fill="#A7A9AC"/>
<path fill-rule="evenodd" clip-rule="evenodd" d="M12.7696 19.9644C12.5669 19.9742 12.3978 19.8798 12.3918 19.7541C12.3857 19.6282 12.5453 19.5183 12.7478 19.5085C12.9505 19.4987 13.1198 19.593 13.1256 19.7188C13.1317 19.8447 12.9721 19.9545 12.7696 19.9644Z" fill="#D1D3D4"/>
<path d="M12.9025 19.8539C12.8927 19.8539 12.8828 19.8511 12.874 19.8455L12.5916 19.6643C12.5671 19.6486 12.56 19.616 12.5757 19.5915C12.5914 19.567 12.6243 19.5601 12.6485 19.5756L12.9309 19.7568C12.9554 19.7725 12.9625 19.8051 12.9468 19.8296C12.9368 19.8453 12.9199 19.8539 12.9025 19.8539Z" fill="#6D6E71"/>
<path d="M12.6143 19.8435C12.5957 19.8435 12.5777 19.8336 12.5681 19.8161C12.554 19.7905 12.5633 19.7585 12.589 19.7445L12.8831 19.5836C12.9091 19.5696 12.9404 19.579 12.9547 19.6048C12.9687 19.6303 12.9593 19.6623 12.9337 19.6763L12.6396 19.8372C12.6315 19.8416 12.6229 19.8435 12.6143 19.8435Z" fill="#6D6E71"/>
<path fill-rule="evenodd" clip-rule="evenodd" d="M26.2401 9.4585C25.9837 9.47085 25.7697 9.3516 25.7619 9.1924C25.7544 9.0332 25.9561 8.89408 26.2123 8.88174C26.4688 8.86939 26.6828 8.98864 26.6906 9.14784C26.6981 9.30725 26.4964 9.44637 26.2401 9.4585Z" fill="#808285"/>
<path fill-rule="evenodd" clip-rule="evenodd" d="M26.2415 9.3987C26.0388 9.40853 25.8697 9.31439 25.8634 9.18845C25.8574 9.06272 26.0168 8.95268 26.2195 8.94306C26.4222 8.93344 26.5913 9.02758 26.5973 9.15331C26.6034 9.27904 26.444 9.38907 26.2415 9.3987Z" fill="#A7A9AC"/>
<path fill-rule="evenodd" clip-rule="evenodd" d="M26.2376 9.36473C26.0349 9.37456 25.8656 9.28021 25.8595 9.15448C25.8535 9.02854 26.0131 8.91871 26.2156 8.90888C26.4183 8.89926 26.5876 8.9934 26.5936 9.11913C26.5997 9.24506 26.4403 9.3549 26.2376 9.36473Z" fill="#D1D3D4"/>
<path d="M26.3691 9.25425C26.3593 9.25425 26.3494 9.25153 26.3406 9.24588L26.0584 9.06471C26.0339 9.04902 26.0268 9.01639 26.0425 8.99191C26.058 8.96744 26.0908 8.96053 26.1153 8.97601L26.3975 9.15718C26.422 9.17287 26.4291 9.20551 26.4134 9.22998C26.4034 9.24567 26.3864 9.25425 26.3691 9.25425Z" fill="#6D6E71"/>
<path d="M26.0791 9.24386C26.0605 9.24386 26.0423 9.23403 26.0329 9.21645C26.0189 9.19093 26.0281 9.15892 26.0538 9.14491L26.3482 8.98403C26.3741 8.97002 26.4059 8.97943 26.4197 9.00516C26.4337 9.03068 26.4243 9.06269 26.3988 9.07671L26.1045 9.23758C26.0963 9.24198 26.0877 9.24386 26.0791 9.24386Z" fill="#6D6E71"/>
<path fill-rule="evenodd" clip-rule="evenodd" d="M7.72248 12.5311L12.7291 9.71398C12.9345 9.59851 13.1309 9.53658 13.3652 9.51357L18.8212 8.97655C19.1637 8.94287 19.4668 9.00563 19.7676 9.17299L22.5197 10.7025C22.6994 10.8022 22.8021 10.9799 22.8025 11.1853C22.8029 11.3909 22.7002 11.5677 22.5213 11.6692L14.4112 16.2724C14.143 16.4247 13.8387 16.4251 13.5698 16.2737L7.7231 12.9773C7.64047 12.9307 7.59298 12.8493 7.59277 12.7545C7.59277 12.6595 7.63984 12.5777 7.72248 12.5311Z" fill="#E6E7E8"/>
<path fill-rule="evenodd" clip-rule="evenodd" d="M8.98396 11.8223L15.7259 15.5272L14.4113 16.2734C14.1431 16.4257 13.8387 16.4261 13.5698 16.2747L7.7231 12.9783C7.64047 12.9317 7.59298 12.8503 7.59277 12.7555C7.59256 12.6607 7.63984 12.5787 7.72248 12.5321L8.98396 11.8223Z" fill="#90C440"/>
<path fill-rule="evenodd" clip-rule="evenodd" d="M21.4898 12.2551L16.0264 9.25165L18.8223 8.97655C19.1648 8.94287 19.4679 9.00563 19.7688 9.17299L22.5208 10.7025C22.7005 10.8022 22.8032 10.9799 22.8036 11.1853C22.804 11.3909 22.7013 11.5677 22.5225 11.6692L21.4898 12.2551Z" fill="#90C440"/>
<path fill-rule="evenodd" clip-rule="evenodd" d="M9.42035 22.6982V23.7086L7.35449 22.5411V21.5371L9.42035 22.6982Z" fill="#414042"/>
<path d="M9.08331 23.1542L9.41971 22.9559V23.0829L9.08331 23.2814V23.1542ZM9.08331 22.7241V22.5969L9.13686 22.5653C9.16281 22.55 9.19649 22.5586 9.21177 22.5845C9.22725 22.6105 9.21846 22.6442 9.19252 22.6594L9.08331 22.7241ZM9.03018 23.3126C9.00424 23.328 8.97056 23.3193 8.95508 23.2933C8.93981 23.2674 8.94838 23.2337 8.97432 23.2182L9.08311 23.154V23.281L9.03018 23.3126ZM9.08331 22.5969V22.7241L8.58688 23.017V22.89L9.08331 22.5969ZM8.58667 22.4597V22.3327L8.64001 22.3011C8.66595 22.2856 8.69964 22.2944 8.71491 22.3203C8.73019 22.3463 8.72161 22.3799 8.69567 22.3954L8.58667 22.4597ZM8.58667 22.3327V22.4597L8.09003 22.7525V22.6255L8.58667 22.3327ZM8.58667 22.89V23.017L8.53354 23.0483C8.5076 23.0636 8.47391 23.055 8.45864 23.0291C8.44315 23.0032 8.45195 22.9695 8.47789 22.9542L8.58667 22.89ZM8.09024 22.1954V22.0684L8.1438 22.0369C8.16974 22.0216 8.20342 22.0302 8.21869 22.0561C8.23396 22.082 8.22539 22.1157 8.19945 22.131L8.09024 22.1954ZM8.09024 22.0684V22.1954L7.54046 22.5197C7.51452 22.535 7.48084 22.5264 7.46557 22.5004C7.4503 22.4745 7.45887 22.4408 7.48481 22.4256L8.09024 22.0684ZM8.09003 22.6255V22.7525L8.03711 22.7839C8.01117 22.7994 7.97748 22.7906 7.96221 22.7647C7.94693 22.7387 7.95552 22.705 7.98146 22.6898L8.09003 22.6255Z" fill="#81806F"/>
<path d="M9.08584 22.8758C9.0599 22.8911 9.02623 22.8825 9.01096 22.8565C8.99548 22.8306 9.00426 22.7969 9.0302 22.7817L9.29212 22.6273L9.40236 22.6892L9.08584 22.8758ZM7.84236 21.8105L7.95261 21.8725L7.59613 22.0827C7.57019 22.0982 7.5365 22.0894 7.52123 22.0635C7.50596 22.0375 7.51455 22.0038 7.54049 21.9884L7.84236 21.8105ZM8.32561 22.0827L8.43586 22.1448L8.09277 22.3471C8.06683 22.3624 8.03315 22.3538 8.01788 22.3279C8.00261 22.302 8.01118 22.2683 8.03712 22.253L8.32561 22.0827ZM8.80887 22.3549L8.91891 22.417L8.58921 22.6116C8.56327 22.6271 8.52958 22.6183 8.51431 22.5923C8.49904 22.5664 8.50762 22.5327 8.53356 22.5174L8.80887 22.3549Z" fill="#81806F"/>
<path fill-rule="evenodd" clip-rule="evenodd" d="M7.21344 21.4646V22.4751L6.05176 21.8184V20.8145L7.21344 21.4646Z" fill="#414042"/>
<defs>
<linearGradient id="paint0_linear_195_1994" x1="20.424" y1="-0.755533" x2="9.51505" y2="24.9444" gradientUnits="userSpaceOnUse">
<stop stop-color="#D1D3D4"/>
<stop offset="0.68" stop-color="#E2E3E4"/>
<stop offset="0.83" stop-color="white"/>
<stop offset="1" stop-color="white"/>
</linearGradient>
<linearGradient id="paint1_linear_195_1994" x1="9.97905" y1="22.2914" x2="18.7704" y2="3.43826" gradientUnits="userSpaceOnUse">
<stop stop-color="white"/>
<stop offset="0.1" stop-color="white"/>
<stop offset="0.38" stop-color="#E2E3E4"/>
<stop offset="1" stop-color="#BCBEC0"/>
</linearGradient>
</defs>
</svg>
